<svg xmlns="http://www.w3.org/2000/svg" xmlns:xlink="http://www.w3.org/1999/xlink" viewBox="0 0 73.68375 55.47737"><defs><style>.b20a2a87-b666-44e0-a907-8d165426a403,.be013ca3-aeef-470d-891f-385647085cb3{fill:#fff;}.ae2e2aad-905f-493f-9602-4ea52761d418{fill:none;}.ec2567c3-2398-49ca-8b8e-74bf258803a1{isolation:isolate;}.e2df58e8-777e-4e2a-b455-7f8c33cad274{clip-path:url(#f0437278-7ebe-4b0c-89bc-52bc3b523f9b);}.a36d15bd-c066-4060-9131-eff40acc525f{fill:#9acfda;}.be013ca3-aeef-470d-891f-385647085cb3{stroke:#f1f2f2;stroke-miterlimit:10;stroke-width:0.145px;}.a3ca0fc2-1896-4a4d-bcd4-b9de8b999813{fill:#70adb6;}.aa2435c4-a1a0-4863-b7a7-e955240184f1{fill:#4d7582;}.a98b7dec-7ff8-4a0c-9790-837cc808590d{fill:#6ba097;}.a9eff0b8-0f62-464e-8c51-1b49f76b6473{fill:#c3d7dc;}.a4c8fce0-ddef-4be7-bd9c-3a941655f149{fill:#f1f2f2;}.ad237da9-d1d6-4212-b4e8-077b6d1ba703{fill:#90c66c;}.b7c30f0c-da48-4add-ac92-5141908fe79b{fill:#7db25a;}.fc028c95-039b-4b30-bb65-73d6d4e82570{fill:#a7a9ac;opacity:0.33;mix-blend-mode:multiply;}.e5ab24ff-800f-4f74-ab34-991e975e2606{fill:#beccaa;}.a6e306ba-f9c5-42bb-aa8c-b6f6939b5ed6{fill:#a2b08b;}.a4be395c-371c-4a0e-83dd-56aff0165108{clip-path:url(#ab92d2b9-366e-45a7-b802-5d6d5aad35a3);}.bcb312dd-e8b6-43f0-b750-fe7145fff090{fill:#dbded7;}.be395731-0a40-421f-b7b3-74830dccb229{fill:#80896f;}.e10fb4c1-1c29-4ce2-8256-3166ba2d785b{fill:#aab692;}.e8d98056-6048-4cb3-8860-f78fbc39b2d6{fill:#415829;}.aebd9b6e-c913-4e81-bf57-55b281461b1b{clip-path:url(#b5448085-2ca6-4e5e-bd80-7f169fd4bcdc);}.b2bbd09b-d1e4-4d1d-9252-d7426f379e78{fill:#3b4923;}.aef20c1f-4163-45b0-bcea-a088a67dd044{fill:#4b6b33;}.bb0a559d-d87d-4569-9a3c-903b2d7c4244{fill:#678e3d;}.f4486926-36ff-4961-8272-dcc579e9cd89{fill:#527938;}.e7d1ca54-26b7-46d4-8aaa-f1b9f58d9866{fill:#537435;}</style><clipPath id="f0437278-7ebe-4b0c-89bc-52bc3b523f9b"><ellipse class="b20a2a87-b666-44e0-a907-8d165426a403" cx="36.84187" cy="27.73868" rx="36.84187" ry="27.73868"/></clipPath><clipPath id="ab92d2b9-366e-45a7-b802-5d6d5aad35a3"><path class="ae2e2aad-905f-493f-9602-4ea52761d418" d="M44.90239,37.61726a20.13882,20.13882,0,0,1,.24242,4.8219s2.18134.30439,3.15032.41046a2.37,2.37,0,0,0,.86286-.22318l.43414-5.15952s-.1051-.99959-.16805-1.49752a18.78543,18.78543,0,0,1-.0869-3.38629,12.86845,12.86845,0,0,0-.40434-2.818l-4.19178-.45566S44.272,35.75277,44.90239,37.61726Z"/></clipPath><clipPath id="b5448085-2ca6-4e5e-bd80-7f169fd4bcdc"><path class="ae2e2aad-905f-493f-9602-4ea52761d418" d="M59.9216,25.60254a2.04339,2.04339,0,0,0,.27733-.58235,2.77976,2.77976,0,0,0-.18-1.32071c-.26766-1.11663-.03367-2.404-.84569-3.2929-.11746-.12858-.34516-.24542-.47192-.1239a1.3,1.3,0,0,1-.2287,1.33843,1.86475,1.86475,0,0,1-1.02156.78236c.22213.28.43857.32093.56091.6867a2.48007,2.48007,0,0,1-1.12256,2.99075,1.92337,1.92337,0,0,1-1.75623.23553,3.00259,3.00259,0,0,1-1.28249,1.79617c-2.03593,1.43413-4.41743.92884-6.67639.29226A3.2194,3.2194,0,0,1,45.308,29.68115c-.03127.008-.0667.01864-.079.0452s.0044.05594.02092.08058a2.16331,2.16331,0,0,0,1.57832,1.1393,13.93477,13.93477,0,0,0,2.67886.39855c1.54791-.1214,3.06268-.958,4.56189-.59751,1.09217.26264.94433-.53819,1.17018-1.255.29313-.93042.80926-1.21748,1.868-1.15706a1.98152,1.98152,0,0,0,1.188-.182c.47885-.31064.30495-.83829.59457-1.23952C59.1715,26.52325,59.62113,26.06407,59.9216,25.60254Z"/></clipPath></defs><title>Artboard 2</title><g class="ec2567c3-2398-49ca-8b8e-74bf258803a1"><g id="ac4e5a39-bdc2-4c80-8c2f-a08a0159ff1e" data-name="Layer 1"><ellipse class="b20a2a87-b666-44e0-a907-8d165426a403" cx="36.84187" cy="27.73868" rx="36.84187" ry="27.73868"/><g class="e2df58e8-777e-4e2a-b455-7f8c33cad274"><polygon class="a36d15bd-c066-4060-9131-eff40acc525f" points="21.531 36.757 13.663 38.062 13.663 12.301 21.531 13.34 21.531 36.757"/><polygon class="be013ca3-aeef-470d-891f-385647085cb3" points="17.416 27.289 19.035 27.026 19.035 29.713 17.416 29.976 17.416 27.289"/><polygon class="a3ca0fc2-1896-4a4d-bcd4-b9de8b999813" points="13.701 38.062 11.838 36.612 11.838 13.533 13.701 12.301 13.701 38.062"/><polygon class="aa2435c4-a1a0-4863-b7a7-e955240184f1" points="19.815 29.876 16.881 30.288 16.383 30.51 19.316 30.097 19.815 29.876"/><polygon class="a98b7dec-7ff8-4a0c-9790-837cc808590d" points="16.891 30.293 16.383 30.51 16.383 29.67 16.891 29.404 16.891 30.293"/><polygon class="a9eff0b8-0f62-464e-8c51-1b49f76b6473" points="16.891 29.404 19.803 28.995 19.803 29.884 16.891 30.293 16.891 29.404"/><polygon class="a4c8fce0-ddef-4be7-bd9c-3a941655f149" points="14.824 22.888 16.444 22.757 16.444 25.444 14.824 25.575 14.824 22.888"/><polygon class="a4c8fce0-ddef-4be7-bd9c-3a941655f149" points="18.141 32.535 19.76 32.272 19.76 34.96 18.141 35.223 18.141 32.535"/><polygon class="a4c8fce0-ddef-4be7-bd9c-3a941655f149" points="16.075 32.822 17.694 32.559 17.694 35.246 16.075 35.509 16.075 32.822"/><polygon class="a4c8fce0-ddef-4be7-bd9c-3a941655f149" points="14.679 13.534 16.299 13.75 16.299 16.437 14.679 16.221 14.679 13.534"/><polygon class="a4c8fce0-ddef-4be7-bd9c-3a941655f149" points="17.108 13.86 18.727 14.076 18.727 16.763 17.108 16.548 17.108 13.86"/><polygon class="a4c8fce0-ddef-4be7-bd9c-3a941655f149" points="17.918 18.645 19.537 18.861 19.537 21.548 17.918 21.333 17.918 18.645"/><polygon class="a98b7dec-7ff8-4a0c-9790-837cc808590d" points="22.213 38.247 20.669 37.045 20.669 17.916 22.213 16.894 22.213 38.247"/><polygon class="a9eff0b8-0f62-464e-8c51-1b49f76b6473" points="28.703 37.166 22.182 38.247 22.182 16.894 28.703 17.756 28.703 37.166"/><polygon class="a4c8fce0-ddef-4be7-bd9c-3a941655f149" points="24.331 18.298 25.733 18.484 25.733 20.81 24.331 20.624 24.331 18.298"/><polygon class="a4c8fce0-ddef-4be7-bd9c-3a941655f149" points="26.433 18.58 27.835 18.766 27.835 21.092 26.433 20.906 26.433 18.58"/><polygon class="a4c8fce0-ddef-4be7-bd9c-3a941655f149" points="23.184 21.983 24.585 22.169 24.585 24.495 23.184 24.309 23.184 21.983"/><polygon class="a4c8fce0-ddef-4be7-bd9c-3a941655f149" points="26.168 26.991 27.569 26.878 27.569 29.203 26.168 29.317 26.168 26.991"/><polygon class="a4c8fce0-ddef-4be7-bd9c-3a941655f149" points="23.824 30.421 25.225 30.193 25.225 32.519 23.824 32.746 23.824 30.421"/><polygon class="a4c8fce0-ddef-4be7-bd9c-3a941655f149" points="25.225 34.209 26.627 33.982 26.627 36.308 25.225 36.535 25.225 34.209"/><polygon class="a4c8fce0-ddef-4be7-bd9c-3a941655f149" points="23.437 34.458 24.839 34.23 24.839 36.556 23.437 36.783 23.437 34.458"/><ellipse class="ad237da9-d1d6-4212-b4e8-077b6d1ba703" cx="42.22182" cy="52.39798" rx="17.46745" ry="67.23748" transform="translate(-11.54352 92.86424) rotate(-88.10525)"/><path class="b7c30f0c-da48-4add-ac92-5141908fe79b" d="M71.30579,44.6041A4.44694,4.44694,0,0,0,70.063,43.23334a2.29693,2.29693,0,0,1,.70976.28244,1.06907,1.06907,0,0,1,.46147.59217,1.61355,1.61355,0,0,1,.27138-.91846,1.508,1.508,0,0,0,.05429.86909,2.79358,2.79358,0,0,1,.772-.48726.77578.77578,0,0,0-.26476.67114,1.06728,1.06728,0,0,1,.39683-.0846.91.91,0,0,0-.119.59079l.02445-.13254"/><path class="b7c30f0c-da48-4add-ac92-5141908fe79b" d="M58.91627,52.13992l-.69559-1.7785a1.46623,1.46623,0,0,1,.52746.3794,2.77633,2.77633,0,0,1,.35276-.66234c-.05268.02166-.00078.11247.055.10092s.08568-.07057.11074-.12172.0641-.10782.121-.10678c.05074.11928-.04712.24384-.0952.36422s.03187.31618.14953.26177a.46688.46688,0,0,0-.13529.42262l.31414-.02781a.92075.92075,0,0,0-.20985.98268"/><path class="b7c30f0c-da48-4add-ac92-5141908fe79b" d="M41.39615,48.74453c.09745-.24161.4269-.37735.25752-.57528l-.56565-.661a1.90112,1.90112,0,0,1,.47531.53772l.08674-.32389a.19162.19162,0,1,0,.37975.04571.95233.95233,0,0,0,.06436.45776A2.16336,2.16336,0,0,1,42.9447,47.016a1.8131,1.8131,0,0,0-.38051,1.11378.14977.14977,0,0,0,.16546-.14955.09009.09009,0,0,0,.16517.02686l-.03332.21.28982.05455c-.07464.0972-.01165.25552.06838.34832"/><path class="b7c30f0c-da48-4add-ac92-5141908fe79b" d="M13.8582,41.427a3.88149,3.88149,0,0,1-.53128-1.36781l.294.52692a1.31781,1.31781,0,0,0,.14965-.519.36714.36714,0,0,1,.014.38877.62632.62632,0,0,0,.31881-.23158,1.41427,1.41427,0,0,1-.03075.39l.22414.01782a1.20969,1.20969,0,0,0,.10089.61255"/><path class="b7c30f0c-da48-4add-ac92-5141908fe79b" d="M32.54611,44.826c.30143-.36918-.00668-.86519-.0784-1.25992l.294.52692a1.318,1.318,0,0,0,.14965-.519.36718.36718,0,0,1,.014.38876.77348.77348,0,0,0,.3104-.20784c-.20029.20917.24222.59881.50082.25825a.45152.45152,0,0,0,.16971.60655"/><path class="b7c30f0c-da48-4add-ac92-5141908fe79b" d="M5.03266,49.52055a1.00415,1.00415,0,0,0,.38761-1.231,3.517,3.517,0,0,1,.30075.736.5258.5258,0,0,1,.28172-.24736,2.31128,2.31128,0,0,1-.01314.42729l.42158-.238a.19165.19165,0,1,0,.31868.20643,5.34264,5.34264,0,0,0,.57569.38453"/><path class="b7c30f0c-da48-4add-ac92-5141908fe79b" d="M49.78471,39.46633a2.06533,2.06533,0,0,1-.38295-.91669,1.5806,1.5806,0,0,0,.3231.5148l.21914-.4536.10315.277.338-.33743a.20262.20262,0,0,0,.29883.27371.6423.6423,0,0,0-.09315.325c.00907.11378.10469.22893.218.21514"/><ellipse class="fc028c95-039b-4b30-bb65-73d6d4e82570" cx="45.52564" cy="42.24767" rx="11.36808" ry="1.1077"/><path class="e5ab24ff-800f-4f74-ab34-991e975e2606" d="M42.78752,34.65287a9.10422,9.10422,0,0,1,2.20923,1.44851q.106-1.3696.31015-2.72143-.81891-.14742-1.641-.26081-.46594-2.51838-.78353-5.08025c.04373.35284-1.90874.59257-2.09861.61484a20.52265,20.52265,0,0,0,.82739,2.79163C41.82481,32.58566,41.84147,34.21929,42.78752,34.65287Z"/><path class="a6e306ba-f9c5-42bb-aa8c-b6f6939b5ed6" d="M44.90239,37.61726a20.13882,20.13882,0,0,1,.24242,4.8219s2.18134.30439,3.15032.41046a2.37,2.37,0,0,0,.86286-.22318l.43414-5.15952s-.1051-.99959-.16805-1.49752a18.78543,18.78543,0,0,1-.0869-3.38629,12.86845,12.86845,0,0,0-.40434-2.818l-4.19178-.45566S44.272,35.75277,44.90239,37.61726Z"/><path class="e5ab24ff-800f-4f74-ab34-991e975e2606" d="M47.41393,36.18257a2.28242,2.28242,0,0,1,1.06925.8563,14.7115,14.7115,0,0,1,4.76875-2.65781.64672.64672,0,0,0,.1573-.11008,1.167,1.167,0,0,0,.02755-.18727l-.01253-4.25123.06788-.52305-1.85513.27388a15.44338,15.44338,0,0,1,.26483,2.63136.37759.37759,0,0,1-.20314.36492c-.62976.24925-2.50746,1.22152-2.69514,1.31152a8.34628,8.34628,0,0,1-1.42049.37617S47.41821,35.58323,47.41393,36.18257Z"/><g class="a4be395c-371c-4a0e-83dd-56aff0165108"><path class="bcb312dd-e8b6-43f0-b750-fe7145fff090" d="M46.79823,39.62962q.00527.10467.00631.21049.0126,1.4055-.019,2.81087a5.21306,5.21306,0,0,1-.171,1.44391c-.45859,1.4355-1.87787.65889-2.59875.17247a1.11466,1.11466,0,0,1-.4638-.49969,2.04,2.04,0,0,1-.09683-.71592q-.07922-4.75536-.06913-9.51269a9.53018,9.53018,0,0,1,.188-2.27235c.3119-1.24224,1.65451-2.19318,2.49762-1.427.47348.43026.26656,1.72084.26114,2.45374q-.01245,1.6847-.02486,3.36961C46.29768,37.05416,46.72916,38.25725,46.79823,39.62962Z"/></g><path class="be395731-0a40-421f-b7b3-74830dccb229" d="M47.61148,37.64283c.09421.30387.21062.6036.33688.92919.082.21145.20332.44755.3817.44548.15541-.0018.27037-.1862.36085-.35488q.31033-.57852.60145-1.17484a2.81186,2.81186,0,0,0,.36611-1.24067A.52316.52316,0,0,0,49.6,35.977c-.09705-.1524-.27906-.09989-.42064-.03432a2.2423,2.2423,0,0,1-.80869.27279c-.3.015-.59717-.07529-.89665-.08457a.08147.08147,0,0,0-.08165.034.16516.16516,0,0,0-.01227.08114A4.8478,4.8478,0,0,0,47.61148,37.64283Z"/><path class="e10fb4c1-1c29-4ce2-8256-3166ba2d785b" d="M53.45044,33.903c.002.10481.00142.21011.00251.31482a.17415.17415,0,0,1-.01391.08689.10173.10173,0,0,1-.04593.0374,5.41229,5.41229,0,0,1-.74426.35326,9.62062,9.62062,0,0,0-2.13146.9198c-.61584.36181-1.17053.92174-1.79638,1.23519a.52348.52348,0,0,1-.44751.0349.97265.97265,0,0,1-.23842-.17275c-.21526-.19109-.4449-.32044-.66319-.50081.23532-.25656.64249-.26759.94193-.37481a15.46717,15.46717,0,0,0,1.702-.79287c.49792-.251,1.01684-.44461,1.52689-.64537.34285-.135.687-.26615,1.03441-.37868a8.60962,8.60962,0,0,1,.86586-.30814C53.44705,33.77521,53.44922,33.839,53.45044,33.903Z"/><path class="e8d98056-6048-4cb3-8860-f78fbc39b2d6" d="M35.08962,21.27253a5.71762,5.71762,0,0,0,.327,2.28586.73358.73358,0,0,1,.06758.44036.82768.82768,0,0,1-.15846.2603,3.07865,3.07865,0,0,0-.67891,2.92787,3.71009,3.71009,0,0,0,4.38745,2.24815A4.10934,4.10934,0,0,0,42.053,30.67452a5.3957,5.3957,0,0,0,3.38365-1.11866,7.61294,7.61294,0,0,0,1.5926.795,11.56119,11.56119,0,0,0,2.13.36426,8.09567,8.09567,0,0,0,4.01322-.41443,6.51626,6.51626,0,0,0,2.75226-2.66392,2.71105,2.71105,0,0,0,2.8088-.90289,3.68032,3.68032,0,0,0,1.05988-2.32733,2.68537,2.68537,0,0,0-1.103-2.26512,1.36514,1.36514,0,0,0-.67784-2.16054,2.0763,2.0763,0,0,0-.28008-2.59867,5.58445,5.58445,0,0,0-2.64671-1.45463,2.87478,2.87478,0,0,0-.83352-3.18206,3.90945,3.90945,0,0,0-3.61562-.71191c.0576-.1191.24531.02933.27647.15585-.87439-.96646-2.37156-3.49727-6.53343-2.103a3.56554,3.56554,0,0,0-2.18352,2.62343A3.6122,3.6122,0,0,0,37.645,16.55067c.00408.3127.08182.62217.08933.93185.00936.386.04269.2745-.30836.40153a3.74491,3.74491,0,0,0-2.26712,2.79165A5.62489,5.62489,0,0,0,35.08962,21.27253Z"/><g class="aebd9b6e-c913-4e81-bf57-55b281461b1b"><path class="b2bbd09b-d1e4-4d1d-9252-d7426f379e78" d="M35.08962,21.27253a5.71762,5.71762,0,0,0,.327,2.28586.73358.73358,0,0,1,.06758.44036.82768.82768,0,0,1-.15846.2603,3.07865,3.07865,0,0,0-.67891,2.92787,3.71009,3.71009,0,0,0,4.38745,2.24815A4.10934,4.10934,0,0,0,42.053,30.67452a5.3957,5.3957,0,0,0,3.38365-1.11866,7.61294,7.61294,0,0,0,1.5926.795,11.56119,11.56119,0,0,0,2.13.36426,8.09567,8.09567,0,0,0,4.01322-.41443,6.51626,6.51626,0,0,0,2.75226-2.66392,2.71105,2.71105,0,0,0,2.8088-.90289,3.68032,3.68032,0,0,0,1.05988-2.32733,2.68537,2.68537,0,0,0-1.103-2.26512,1.36514,1.36514,0,0,0-.67784-2.16054,2.0763,2.0763,0,0,0-.28008-2.59867,5.58445,5.58445,0,0,0-2.64671-1.45463,2.87478,2.87478,0,0,0-.83352-3.18206,3.90945,3.90945,0,0,0-3.61562-.71191c.0576-.1191.24531.02933.27647.15585-.87439-.96646-2.37156-3.49727-6.53343-2.103a3.56554,3.56554,0,0,0-2.18352,2.62343A3.6122,3.6122,0,0,0,37.645,16.55067c.00408.3127.08182.62217.08933.93185.00936.386.04269.2745-.30836.40153a3.74491,3.74491,0,0,0-2.26712,2.79165A5.62489,5.62489,0,0,0,35.08962,21.27253Z"/></g><ellipse class="aef20c1f-4163-45b0-bcea-a088a67dd044" cx="50.82579" cy="22.9682" rx="5.22446" ry="4.60551"/><ellipse class="aef20c1f-4163-45b0-bcea-a088a67dd044" cx="49.4873" cy="18.17238" rx="5.22446" ry="4.60551"/><ellipse class="aef20c1f-4163-45b0-bcea-a088a67dd044" cx="43.12704" cy="24.26371" rx="5.24699" ry="4.62536"/><path class="aef20c1f-4163-45b0-bcea-a088a67dd044" d="M41.89858,25.09526c-.04139,1.01644-.92541,1.659-1.987,2.26028a2.69977,2.69977,0,0,1-1.24808.41606,2.87417,2.87417,0,0,1-3.14938-2.67626,3.02383,3.02383,0,0,1,3.19515-2.81659,3.1821,3.1821,0,0,1,3.09345,2.10882A2.18828,2.18828,0,0,1,41.89858,25.09526Z"/><path class="bb0a559d-d87d-4569-9a3c-903b2d7c4244" d="M35.53322,21.58609a3.37452,3.37452,0,0,0,1.04863,2.12859,4.98977,4.98977,0,0,0,1.51077,1.03244,5.27178,5.27178,0,0,0,2.57708.29764,6.95546,6.95546,0,0,0,2.40889-.8251,3.664,3.664,0,0,0,1.80331-2.53317,2.81335,2.81335,0,0,0,2.5683,1.24771,4.34245,4.34245,0,0,0,2.42707-.67692,3.03489,3.03489,0,0,0,.58894-4.58309,5.21049,5.21049,0,0,0-1.54152-.971,6.54426,6.54426,0,0,0,1.43248-1.01994c1.06165-1.17858.468-2.89757-.56542-3.92336a4.971,4.971,0,0,0-5.08612-.94079,3.0427,3.0427,0,0,0-1.25127,1.11129,3.01561,3.01561,0,0,0-.57787,1.55668,3.70522,3.70522,0,0,0-3.4775.57429,2.92451,2.92451,0,0,0-1.08046,2.30255,3.27,3.27,0,0,0,.42153,1.89411,2.45353,2.45353,0,0,0-1.48337.1775A3.01709,3.01709,0,0,0,35.53322,21.58609Z"/><path class="f4486926-36ff-4961-8272-dcc579e9cd89" d="M45.20648,14.20662c-.9754.12385-1.18434.88149-1.60938,1.49394-.52746.76-1.72417.617-2.574.55413a2.2518,2.2518,0,0,0-2.03477.69511,1.12324,1.12324,0,0,0,.00773,1.11892,2.24731,2.24731,0,0,0,.88946.83652,4.67233,4.67233,0,0,0,3.397.38194A5.5867,5.5867,0,0,0,46.104,17.5044a2.63342,2.63342,0,0,0,.77133-2.0096A1.56949,1.56949,0,0,0,45.20648,14.20662Z"/><path class="e7d1ca54-26b7-46d4-8aaa-f1b9f58d9866" d="M43.52385,43.00187c.95691.51823,3.03921.30776,3.03219-1.11766-.00864-1.755-2.54626-2.21262-3.50577-.98006A1.41081,1.41081,0,0,0,43.52385,43.00187Z"/><path class="e7d1ca54-26b7-46d4-8aaa-f1b9f58d9866" d="M50.1213,41.66087a1.06816,1.06816,0,0,0-.6136-.30257,2.04992,2.04992,0,0,0-1.32967.04791.888.888,0,0,0-.48366,1.11722,1.05012,1.05012,0,0,0,.67908.47753,2.3982,2.3982,0,0,0,1.68415-.14465c.33953-.16392.67345-.50958.56273-.87-.088-.28634-.40751-.421-.69045-.51937-.0662-.023-.17619-.01114-.16137.05736"/><path class="e7d1ca54-26b7-46d4-8aaa-f1b9f58d9866" d="M43.75082,41.21423a1.0681,1.0681,0,0,0-.61359-.30257,2.05,2.05,0,0,0-1.32968.04791.888.888,0,0,0-.48366,1.11722,1.05015,1.05015,0,0,0,.67908.47753,2.3982,2.3982,0,0,0,1.68415-.14465c.33953-.16391.67346-.50958.56273-.87-.088-.28634-.40751-.421-.69044-.51937-.0662-.023-.1762-.01114-.16137.05736"/><path class="e7d1ca54-26b7-46d4-8aaa-f1b9f58d9866" d="M51.10867,41.09619c.1821.03451.38368-.04913.54937.03394a.406.406,0,0,1,.056.6126.95827.95827,0,0,1-.64712.252c-.81724.07078-2.67405-.359-1.80421-1.51486C50.164,39.28209,50.42236,40.96611,51.10867,41.09619Z"/></g></g></g></svg>