<svg id="a1a8d4c3-c319-4c54-a085-966b42f42b25" data-name="Layer 1" xmlns="http://www.w3.org/2000/svg" viewBox="0 0 58.34019 35.63699"><defs><style>.f008b268-033e-481f-93e0-a4edbf7e5381{fill:#d1d3d4;}.adb0de74-ba22-4eea-ada5-985a7270d487,.b5a321c4-1a90-4cf0-bbee-2bc9b2d3d934{fill:#4e7582;}.b5a321c4-1a90-4cf0-bbee-2bc9b2d3d934{stroke:#4e7582;stroke-linejoin:round;stroke-width:1.23912px;}.e0a2ee58-13d1-4d3b-a9ca-8309e755bdef{fill:none;stroke:#ef5b5b;stroke-miterlimit:10;stroke-width:3.76978px;}</style></defs><title>Artboard 6</title><path class="f008b268-033e-481f-93e0-a4edbf7e5381" d="M2.73486,28.817H.67429A.67429.67429,0,0,1,0,28.14272V3.19753A3.19753,3.19753,0,0,1,3.19753,0H37.69031a3.19754,3.19754,0,0,1,2.55774,1.27863l8.02432,10.69578,7.19519,1.20444a3.86181,3.86181,0,0,1,2.87263,3.733v8.70765A3.19753,3.19753,0,0,1,55.14265,28.817Z"/><circle class="b5a321c4-1a90-4cf0-bbee-2bc9b2d3d934" cx="10.86656" cy="30.52563" r="4.4918"/><circle class="b5a321c4-1a90-4cf0-bbee-2bc9b2d3d934" cx="46.43046" cy="30.52563" r="4.4918"/><path class="adb0de74-ba22-4eea-ada5-985a7270d487" d="M27.9309,3.69729v6.972a.84546.84546,0,0,0,.84545.84546H43.47862a.38489.38489,0,0,0,.30051-.62537L39.15966,4.66154a4.47662,4.47662,0,0,0-3.59552-1.8097H28.77635A.84545.84545,0,0,0,27.9309,3.69729Z"/><line class="e0a2ee58-13d1-4d3b-a9ca-8309e755bdef" x1="4.93284" y1="11.97441" x2="18.50406" y2="11.97441"/><line class="e0a2ee58-13d1-4d3b-a9ca-8309e755bdef" x1="11.71845" y1="18.76001" x2="11.71845" y2="5.1888"/></svg>