<svg id="a14f8d53-5248-4253-bbc9-918e80bbc5e9" data-name="Layer 1" xmlns="http://www.w3.org/2000/svg" viewBox="0 0 88.61688 124.52477"><title>Artboard 2</title><path d="M.02063.07241H89.02248v124.8H.02063ZM2.34219,2.23762c-.01929.43429-.04863.78745-.0487,1.1406Q2.28941,23.17569,2.298,42.97315c.00784,4.75336-.09243,9.51887.20455,14.257A80.482,80.482,0,0,0,7.10875,79.099,79.89678,79.89678,0,0,0,25.62954,108.89a78.98323,78.98323,0,0,0,18.34844,13.873,2.252,2.252,0,0,0,1.8235-.001A71.25009,71.25009,0,0,0,61.9182,111.07627,78.05313,78.05313,0,0,0,81.42,82.61679a74.041,74.041,0,0,0,5.4857-26.74519c.10807-17.39732.03109-34.79579.031-52.19378V2.23762Z" fill="#fffdfc"/><path d="M2.34219,2.23762H86.93672v1.4402c.00005,17.398.077,34.79646-.031,52.19378A74.041,74.041,0,0,1,81.42,82.61679,78.05313,78.05313,0,0,1,61.9182,111.07627a71.25009,71.25009,0,0,1-16.11672,11.68579,2.252,2.252,0,0,1-1.8235.001A78.98323,78.98323,0,0,1,25.62954,108.89,79.89678,79.89678,0,0,1,7.10875,79.099,80.482,80.482,0,0,1,2.50259,57.23019c-.297-4.73817-.19671-9.50368-.20455-14.257Q2.26537,23.17573,2.29349,3.37822C2.29356,3.02507,2.3229,2.67191,2.34219,2.23762ZM27.37334,21.43055a6.8221,6.8221,0,0,1-1.14756.43213c-.6481.12311-1.31265.15959-1.97027.23261l-2.20414.31877-.15839.40183,4.66914,2.55981-3.46358,2.27192c3.16827.972,6.27074,1.44591,9.32.4811a27.84664,27.84664,0,0,1,9.0834-.97189c1.91492.03456,3.83115-.00663,5.74635.01906a7.34926,7.34926,0,0,1,1.25694.23178l-1.44315.44778-.48722-.00238-.23755.0072a.27.27,0,0,1-.20581.06514l-.09684.46222.00083.96652c-.02653.02288-.07892.05252-.075.06745a1.00909,1.00909,0,0,0,.075.16908l-.006,4.80727-.14313.533-.52676,1.11292-.47488-.89327V27.99369h-2.879v5.93744c-.86755-.08012-1.7348-.22564-2.60268-.22955q-7.45958-.03357-14.91931.00686a2.95858,2.95858,0,0,0-.98713.40486l-2.15864,2.39475c-.1185.36782-.237.73562-.35676,1.09987l-.90268.44188V78.072c.54727,0,.97553.01045,1.40315-.0017q4.18773-.11886,8.37516-.24747,6.09616-.1975,12.1918-.41117V89.74878h2.82385c0-4.18045,0-8.28195-.00015-12.38358l1.2487.0096V89.93224l2.872-.33484c.031-.02261.09159-.05323.088-.06647a1.16088,1.16088,0,0,0-.08016-.18293l-.00868-3.35022.5374-.044a14.59874,14.59874,0,0,0,2.77457-8.36528l.2655-.06164,17.68873.56867V37.88632l-1.10851-.1789.1141-1.19049L68.24535,36.134l.13784-.16425-1.12088-1.28552-.18116-1.00978H55.69179a55.9935,55.9935,0,0,0-.93187-6.47582c-.63275-2.45065-2.35566-3.464-4.92757-3.52008-3.83527-.08362-7.66993-.20582-11.50363-.345a6.787,6.787,0,0,1-4.07342-1.11143,9.14343,9.14343,0,0,0-2.29828-.90189l-.49752.83289-.53144-.9411-1.846-.78695v2.39673l.20964.1569.481-.02275.2378.38653q-.83376.00046-1.66758.00093l.21829-.50764V20.51924ZM67.98642,91.80276l-.07983-.07765c-.02183-1.99006-.33985-3.86939-1.89631-5.31364a5.87546,5.87546,0,0,0-1.52718,6.793,4.5117,4.5117,0,0,0,1.68108,2.21018c2.83438,1.41442,7.09772-1.46757,7.17657-4.75449C71.31344,89.894,69.64126,90.80643,67.98642,91.80276ZM34.58207,107.10444a5.78952,5.78952,0,0,0-5.83721.6868,21.17727,21.17727,0,0,0,2.98338,2.61792c1.89063,1.117,4.93984.64975,5.88924-.6855,1.79046-2.51811.4232-7.20491-2.62417-8.483a7.10577,7.10577,0,0,0-.60235,1.88609c-.03953,1.33024.10457,2.66594.17333,3.9994Zm14.65769,6.2023-.026-.657a7.85609,7.85609,0,0,0-1.8139-7.78234l1.05531-.52583v-2.13674l-2.64968.71345-1.33979-1.7641,4.00163-1.20463V97.73642l-5.42362,1.52985L41.32554,94.8702l-4.08965-1.69145A14.58734,14.58734,0,0,0,42.7463,103.7402v2.29358l2.42433-.60536,1.47924,1.71322-3.89735,1.16754v2.22607l5.02363-1.42368.666,1.90067-6.8562,2.29722v1.78941h8.11928Zm6.59744-12.01567a6.28334,6.28334,0,0,0-2.93544,6.30761c.13249,1.12448.35644,2.30466,1.57577,2.91446a5.52874,5.52874,0,0,0,7.69469-3.05885c-1.74613-1.24077-3.62033-.94334-5.53821-.29109C57.12547,104.00561,56.98124,102.91212,55.8372,101.29107ZM78.651,67.1c-.45108-2.15308-1.21227-3.95287-3.18027-4.96605a6.32793,6.32793,0,0,0,1.61274,8.50468,1.92367,1.92367,0,0,0,.75065.32982c3.256.4014,6.65552-3.59571,5.73432-6.77808C81.39975,64.14114,79.99233,65.448,78.651,67.1ZM4.03773,17.12411c-1.163,3.59451.6434,6.82732,4.41533,8.0154,3.55-1.17018,5.61569-5.36376,3.90225-7.98416a6.35711,6.35711,0,0,0-4.03357,3.98833C7.12177,18.62534,5.91467,17.49292,4.03773,17.12411Zm10.4146,45.52568c-1.94833,1.16894-2.63911,3.01631-3.048,5.08692-1.95335-2.14192-3.37407-2.83816-5.05859-2.53705a5.80241,5.80241,0,0,0,5.34435,6.37382,2.58361,2.58361,0,0,0,1.54192-.433A6.35194,6.35194,0,0,0,14.45233,62.64979ZM62.86214,99.68688c.13711-2.19607-.20719-4.09752-1.71374-5.625-2.58914,1.8803-2.83,6.98994-.46747,8.88917a1.85041,1.85041,0,0,0,.64068.29848A5.67344,5.67344,0,0,0,68.41423,98.528C66.39044,97.78519,64.63252,98.4575,62.86214,99.68688ZM76.68442,34.49842c-1.27569,2.89229.853,7.12766,3.8603,7.77166a1.527,1.527,0,0,0,.58694.01349c3.2094-.60487,5.38115-5.10292,3.85646-8.16675a6.56776,6.56776,0,0,0-4.05818,4.25163A6.23344,6.23344,0,0,0,76.68442,34.49842ZM12.45771,44.23661a6.49079,6.49079,0,0,0-4.1525,4.03448c-.86471-2.04655-2.08189-3.55552-4.23913-4.10562a6.14434,6.14434,0,0,0,3.69265,7.86331,2.08668,2.08668,0,0,0,1.1526.0715C11.88757,51.26294,13.71539,47.27306,12.45771,44.23661Zm4.6526,27.08794a6.66409,6.66409,0,0,0-2.55742,5.34953A5.769,5.769,0,0,0,9.28423,74.376,5.74658,5.74658,0,0,0,13.815,80.22368a4.11062,4.11062,0,0,0,2.42641-.16588C18.87252,78.57374,19.33109,73.636,17.11031,71.32455ZM4.07283,35.00631A6.17451,6.17451,0,0,0,6.683,42.38285a3.54406,3.54406,0,0,0,2.11586.56637c3.02026-.61812,4.99047-4.89824,3.63965-7.83479A6.36968,6.36968,0,0,0,8.2939,39.12784,6.25135,6.25135,0,0,0,4.07283,35.00631Zm72.76053,8.6756a5.95269,5.95269,0,0,0,.221,4.24021c.78057,1.82614,2.06661,3.42976,4.06587,3.449,2.00394.01927,3.31587-1.57252,4.11969-3.38354a5.92857,5.92857,0,0,0,.09291-4.75748,6.56307,6.56307,0,0,0-4.102,4.20717C80.20691,45.59627,79.05012,44.07537,76.83336,43.68191ZM28.15556,99.78369c-1.85665-1.14788-3.60451-1.756-5.55236-.95077a5.618,5.618,0,0,0,7.30755,4.4416,1.78059,1.78059,0,0,0,.59886-.36058c2.21679-2.15143,1.81957-6.86017-.78671-8.78165C28.28287,95.66718,27.95288,97.52763,28.15556,99.78369ZM4.08405,25.43477A6.09744,6.09744,0,0,0,6.39835,32.626a3.94443,3.94443,0,0,0,2.42143.74172c2.95782-.53157,4.93641-4.83628,3.65525-7.65741-1.75139.29108-2.76526,1.1934-4.204,3.778A6.45115,6.45115,0,0,0,4.08405,25.43477Zm66.29023,52.9554a6.36622,6.36622,0,0,0-.43763,8.69332,1.88367,1.88367,0,0,0,.77437.51614,5.68956,5.68956,0,0,0,7.04492-4.91121c-2.04218-.67212-3.77909.0471-5.52112,1.35464A6.73789,6.73789,0,0,0,70.37428,78.39017Zm2.53622-7.55074a6.14562,6.14562,0,0,0-.48119,6.528,4.6664,4.6664,0,0,0,2.21749,2.32154c3.11253.90915,6.78206-2.65121,6.32091-6.23568a14.3437,14.3437,0,0,0-2.6987.6783,16.37,16.37,0,0,0-2.3994,1.64023C74.83241,72.39922,74.51483,71.85251,72.9105,70.83943ZM12.54169,54.42334a6.44411,6.44411,0,0,0-3.74293,4.42591C7.73022,56.96213,6.39,55.59466,4.2212,55.32654a5.87173,5.87173,0,0,0,3.42007,6.97474,3.48291,3.48291,0,0,0,2.0528.30128C12.62925,61.66991,14.15,57.23184,12.54169,54.42334ZM76.14432,16.5744c-1.14307,3.029.782,6.90417,3.753,7.696a1.8665,1.8665,0,0,0,.9307-.00723,6.11248,6.11248,0,0,0,3.65841-8.10356,6.52174,6.52174,0,0,0-4.05482,4.21857C79.46237,18.46019,78.248,17.05342,76.14432,16.5744ZM12.78337,83.29a5.59319,5.59319,0,0,0,6.332,4.84885,2.91547,2.91547,0,0,0,1.65771-.78666,6.28043,6.28043,0,0,0-.763-8.58106,6.9132,6.9132,0,0,0-1.71162,5.66743A5.99931,5.99931,0,0,0,12.78337,83.29Zm4.57934,7.83642a5.75373,5.75373,0,0,0,3.736,4.54654,4.21648,4.21648,0,0,0,4.03378-.2347c2.37763-1.81153,2.04645-6.94845-.53551-8.79344a6.947,6.947,0,0,0-1.67888,5.64376C21.15645,90.99086,19.3928,90.38886,17.36271,91.12647ZM84.7218,24.60881a6.5912,6.5912,0,0,0-4.04612,4.07733c-1.44837-2.47049-2.75011-3.50641-4.37743-3.54393a6.113,6.113,0,0,0,3.49167,7.38356,2.26228,2.26228,0,0,0,1.15756.15612C84.094,32.10461,86.23812,27.56334,84.7218,24.60881ZM81.0235,58.12313c-1.017-2.55184-2.14088-3.75577-3.87071-4.23291-1.55545,2.67946.14468,7.11367,3.10072,8.0409a1.89331,1.89331,0,0,0,.933.00388,6.00891,6.00891,0,0,0,4.33839-7.52412A6.17933,6.17933,0,0,0,81.0235,58.12313ZM44.8744,8.45213c-3.54846,4.27866-2.784,9.0781-2.82164,13.7786H44.8744ZM48.95493,22.282c-.07721-4.759.74209-9.57053-2.77439-13.71883V22.282ZM8.25886,7.19636c-2.67816,2.27341-2.63163,7.23222.08422,8.97484C10.79978,13.59423,10.76011,9.36682,8.25886,7.19636Zm72.06644,8.284c2.5554-2.51667,2.36872-7.172-.29645-8.97943A6.28432,6.28432,0,0,0,80.3253,15.48035ZM41.46327,85.493a8.4425,8.4425,0,0,0-4.16158,6.48432l4.16158-2.4594ZM20.58189,26.42681l4.47682-.98452-6.68461-.52522c0,.61323.18923,1.31107-.05608,1.78306-.22156.42627-.91825.60558-1.38079.87924C18.403,28.56,19.3687,28.28085,20.58189,26.42681ZM50.82691,93.17H40.15812a4.22016,4.22016,0,0,0,3.43593.91643,13.9792,13.9792,0,0,1,3.78748-.00219A4.223,4.223,0,0,0,50.82691,93.17Zm-8.1133,4.01145,5.90828-1.71592-.10062-.44979H42.71361Zm7.91549-5.43854.06724-.51425c-1.05093-.12885-2.09877-.31937-3.1535-.37206a46.43075,46.43075,0,0,0-4.74431-.05376,13.3636,13.3636,0,0,0-2.51991.61633l.1072.32374Z" fill="#eb2828"/><path d="M48.50525,27.40766a7.34991,7.34991,0,0,0-1.25693-.23177c-1.9152-.02569-3.83143.0155-5.74635-.01906a27.84664,27.84664,0,0,0-9.0834.97189c-3.04929.96481-6.15176.49088-9.32-.4811l3.46358-2.27192L21.893,22.81589l.15839-.40183,2.20417-.31877h2.24005l1.84747,1.24815,1.66754-.001q.72449-.59469,1.4489-1.18936l.49752-.83288a9.14343,9.14343,0,0,1,2.29828.90189,6.787,6.787,0,0,0,4.07342,1.11143c3.8337.13918,7.66836.26138,11.50363.345,2.57191.05607,4.29482,1.06943,4.92757,3.52008a55.99844,55.99844,0,0,1,.93189,6.47578q-2.55577.01476-5.11165.02947a26.67682,26.67682,0,0,0-.19272-3.63831A3.06163,3.06163,0,0,0,48.50525,27.40766Z" fill="#fef5f2"/><path d="M49.23977,113.30674l.46545,1.79213H41.58594v-1.78941l6.8562-2.29722-.666-1.90067-5.02363,1.42368v-2.22607l3.89735-1.16754-1.47924-1.71322-2.42433.60536V103.7402a14.58734,14.58734,0,0,1-5.51041-10.56145l4.08965,1.69145,1.71812,4.39607,5.42362-1.52985v2.21313l-4.00163,1.20463,1.33979,1.7641,2.64968-.71345v2.13674l-1.05531.52583a7.856,7.856,0,0,1,1.81395,7.78214q-.34035-.21414-.68081-.42788l-.24559.27156Z" fill="#fef3f0"/><path d="M55.8372,101.29107c1.144,1.621,1.28827,2.71454.79681,5.87213,1.91788-.65225,3.79208-.94968,5.53821.29109a5.52874,5.52874,0,0,1-7.69469,3.05885c-1.21933-.6098-1.44328-1.79-1.57577-2.91446A6.28334,6.28334,0,0,1,55.8372,101.29107Z" fill="#262d1a"/><path d="M78.651,67.1c1.34136-1.65191,2.74878-2.95881,4.91744-2.90963.9212,3.18237-2.47833,7.17948-5.73432,6.77808a1.92367,1.92367,0,0,1-.75065-.32982A6.32793,6.32793,0,0,1,75.4707,62.1339C77.4387,63.14708,78.19989,64.94687,78.651,67.1Z" fill="#262d1a"/><path d="M4.03773,17.12411c1.87694.36881,3.084,1.50123,4.284,4.01957a6.35711,6.35711,0,0,1,4.03357-3.98833c1.71344,2.6204-.35227,6.814-3.90225,7.98416C4.68113,23.95143,2.87477,20.71862,4.03773,17.12411Z" fill="#262d1a"/><path d="M14.45233,62.64979a6.35194,6.35194,0,0,1-1.22036,8.4907,2.58361,2.58361,0,0,1-1.54192.433A5.80241,5.80241,0,0,1,6.3457,65.19966c1.68452-.30111,3.10524.39513,5.05859,2.53705C11.81322,65.6661,12.504,63.81873,14.45233,62.64979Z" fill="#262d1a"/><path d="M62.86214,99.68688c1.77038-1.22938,3.5283-1.90169,5.55209-1.15887a5.67344,5.67344,0,0,1-7.09262,4.72148,1.85041,1.85041,0,0,1-.64068-.29848c-2.36254-1.89923-2.12167-7.00887.46747-8.88917C62.655,95.58936,62.99925,97.49081,62.86214,99.68688Z" fill="#262d1a"/><path d="M76.68442,34.49842a6.23344,6.23344,0,0,1,4.24552,3.87,6.56776,6.56776,0,0,1,4.05818-4.25163c1.52469,3.06383-.64706,7.56188-3.85646,8.16675a1.527,1.527,0,0,1-.58694-.01349C77.53741,41.62608,75.40873,37.39071,76.68442,34.49842Z" fill="#262d1a"/><path d="M12.45771,44.23661c1.25768,3.03645-.57014,7.02633-3.54638,7.86367a2.08668,2.08668,0,0,1-1.1526-.0715,6.14434,6.14434,0,0,1-3.69265-7.86331c2.15724.5501,3.37442,2.05907,4.23913,4.10562A6.49079,6.49079,0,0,1,12.45771,44.23661Z" fill="#262d1a"/><path d="M17.11031,71.32455c2.22078,2.31145,1.76221,7.24919-.86892,8.73325a4.11062,4.11062,0,0,1-2.42641.16588A5.74658,5.74658,0,0,1,9.28423,74.376a5.769,5.769,0,0,1,5.26866,2.29808A6.66409,6.66409,0,0,1,17.11031,71.32455Z" fill="#262d1a"/><path d="M34.56429,107.12613c-.06876-1.33346-.21286-2.66916-.17333-3.9994a7.10577,7.10577,0,0,1,.60235-1.88609c3.04737,1.27811,4.41463,5.96491,2.62417,8.483-.9494,1.33525-3.99861,1.80247-5.88924.6855a21.17727,21.17727,0,0,1-2.98338-2.61792,5.78956,5.78956,0,0,1,5.83723-.6868l.05308.047Z" fill="#262d1a"/><path d="M4.07283,35.00631A6.25135,6.25135,0,0,1,8.2939,39.12784a6.36968,6.36968,0,0,1,4.14456-4.01341c1.35082,2.93655-.61939,7.21667-3.63965,7.83479A3.54406,3.54406,0,0,1,6.683,42.38285,6.17451,6.17451,0,0,1,4.07283,35.00631Z" fill="#262d1a"/><path d="M67.98642,91.80276c1.65484-.99633,3.327-1.90871,5.35433-1.14256-.07885,3.28692-4.34219,6.16891-7.17657,4.75449a4.5117,4.5117,0,0,1-1.68108-2.21018,5.87546,5.87546,0,0,1,1.52718-6.793c1.55646,1.44425,1.87448,3.32358,1.89651,5.31383-.02973.05138-.05967.10257-.10668.183Z" fill="#262d1a"/><path d="M76.83336,43.68191c2.21676.39346,3.37355,1.91436,4.39744,3.75535a6.56307,6.56307,0,0,1,4.102-4.20717,5.92857,5.92857,0,0,1-.09291,4.75748c-.80382,1.811-2.11575,3.40281-4.11969,3.38354-1.99926-.01923-3.2853-1.62285-4.06587-3.449A5.95269,5.95269,0,0,1,76.83336,43.68191Z" fill="#262d1a"/><path d="M28.15556,99.78369c-.20268-2.25606.12731-4.11651,1.56734-5.6514,2.60628,1.92148,3.0035,6.63022.78671,8.78165a1.78059,1.78059,0,0,1-.59886.36058,5.618,5.618,0,0,1-7.30755-4.4416C24.55105,98.02774,26.29891,98.63581,28.15556,99.78369Z" fill="#262d1a"/><path d="M4.08405,25.43477a6.45115,6.45115,0,0,1,4.187,4.05349c1.43875-2.5846,2.45262-3.48692,4.204-3.778,1.28116,2.82113-.69743,7.12584-3.65525,7.65741A3.94443,3.94443,0,0,1,6.39835,32.626,6.09744,6.09744,0,0,1,4.08405,25.43477Z" fill="#262d1a"/><path d="M70.37428,78.39017a6.73789,6.73789,0,0,1,1.86054,5.65289c1.742-1.30754,3.47894-2.02676,5.52112-1.35464A5.68956,5.68956,0,0,1,70.711,87.59963a1.88367,1.88367,0,0,1-.77437-.51614A6.36622,6.36622,0,0,1,70.37428,78.39017Z" fill="#262d1a"/><path d="M72.9105,70.83943c1.60433,1.01308,1.92191,1.55979,2.95911,4.93234a16.37,16.37,0,0,1,2.3994-1.64023,14.3437,14.3437,0,0,1,2.6987-.6783c.46115,3.58447-3.20838,7.14483-6.32091,6.23568a4.6664,4.6664,0,0,1-2.21749-2.32154A6.14562,6.14562,0,0,1,72.9105,70.83943Z" fill="#262d1a"/><path d="M12.54169,54.42334c1.60829,2.8085.08756,7.24657-2.84762,8.17922a3.48291,3.48291,0,0,1-2.0528-.30128A5.87173,5.87173,0,0,1,4.2212,55.32654c2.16876.26812,3.509,1.63559,4.57756,3.52271A6.44411,6.44411,0,0,1,12.54169,54.42334Z" fill="#262d1a"/><path d="M76.14432,16.5744c2.10364.479,3.31805,1.88579,4.2873,3.80381a6.52174,6.52174,0,0,1,4.05482-4.21857A6.11248,6.11248,0,0,1,80.828,24.2632a1.8665,1.8665,0,0,1-.9307.00723C76.92627,23.47857,75.00125,19.6034,76.14432,16.5744Z" fill="#262d1a"/><path d="M12.78337,83.29a5.99931,5.99931,0,0,1,5.51513,1.14856,6.9132,6.9132,0,0,1,1.71162-5.66743,6.28043,6.28043,0,0,1,.763,8.58106,2.91547,2.91547,0,0,1-1.65771.78666A5.59319,5.59319,0,0,1,12.78337,83.29Z" fill="#262d1a"/><path d="M17.36271,91.12647c2.03009-.73761,3.79374-.13561,5.55544,1.16216A6.947,6.947,0,0,1,24.597,86.64487c2.582,1.845,2.91314,6.98191.53551,8.79344a4.21648,4.21648,0,0,1-4.03378.2347A5.75373,5.75373,0,0,1,17.36271,91.12647Z" fill="#262d1a"/><path d="M84.7218,24.60881c1.51632,2.95453-.62777,7.4958-3.77432,8.07308a2.26228,2.26228,0,0,1-1.15756-.15612,6.113,6.113,0,0,1-3.49167-7.38356c1.62732.03752,2.92906,1.07344,4.37743,3.54393A6.5912,6.5912,0,0,1,84.7218,24.60881Z" fill="#262d1a"/><path d="M81.0235,58.12313a6.17933,6.17933,0,0,1,4.50143-3.71225A6.00891,6.00891,0,0,1,81.18654,61.935a1.89331,1.89331,0,0,1-.933-.00388c-2.956-.92723-4.65617-5.36144-3.10072-8.0409C78.88262,54.36736,80.00652,55.57129,81.0235,58.12313Z" fill="#262d1a"/><path d="M50.58021,33.704q2.5558-.01479,5.1116-.02956c3.78032,0,7.56065,0,11.38934,0l.18116,1.00978,1.12088,1.28552-.13784.16425,1.01853.38292c-.04034.4209-.07722.80569-.11419,1.19093q.11334.23418.22685.4675a10.19964,10.19964,0,0,0-.18714,1.38742q-.017,18.01034-.023,36.02069a6.37155,6.37155,0,0,1-.27,1.2924l-.03594-.56788-.06887-2.043.00113-1.74348,0-2.33647-.0001-2.94354,0-4.01648-.0001-2.94355.00007-2.81638.0001-2.94352-.00024-2.3365V49.24149l.00017-1.13649q-.00009-2.19175-.00018-4.38351l.00016-1.1365.024-4.62183.00151-.41694.00385-.30575.014-.36481-.63909-.05643-.0081-.01819-.25257-.00884-.16936-.2514-.1628-.84889a.97647.97647,0,0,0-.35953.74563q.00569,18.41607.026,36.83213l-.11179,1.41808a.3381.3381,0,0,1-.17535-.01509l-.2401-.4382c.01585-.43745.04546-.8749.04555-1.31236q.00348-17.83888.0043-35.67779c.00017-.55649.04252-1.11295.06523-1.66943L66.8337,34.4036a9.88073,9.88073,0,0,0-1.27206-.16646q-7.17175-.03282-14.34365-.03783l-.29.013-1.4718.11976-.48043.04587a.23419.23419,0,0,1-.21352.0303l-.5017-.23778.69281-.27057Z" fill="#ae322c"/><path d="M44.87241,77.36533V89.74878H42.04856c0-4.14081,0-8.239.00028-12.33737a.32769.32769,0,0,0,.205-.06376Z" fill="#fef3f0"/><path d="M48.99293,89.5974l-2.872.33484c0-4.31425,0-8.43584.00017-12.55758q1.30968-.01509,2.619-.02986a.25784.25784,0,0,0,.16962.06047q.04118,4.29628.08233,8.59256l.00868,3.3502Z" fill="#fef3f0"/><path d="M44.8744,8.45213v13.7786H42.05276C42.09041,17.53023,41.32594,12.73079,44.8744,8.45213Z" fill="#fef1ed"/><path d="M48.95493,22.282H46.18054V8.5632C49.697,12.7115,48.87772,17.52306,48.95493,22.282Z" fill="#fef1ed"/><path d="M48.26054,34.17049l.50172.23777c-.22275.082-.442.17582-.66883.2442-2.20519.6647-2.46049,1.00248-2.46048,3.27114q.00009,17.61218.004,35.22435c.00015.34992.06052.69982.09282,1.04973l.14706.736c.837.06737,1.61672.13013,2.3964.19284l-.0137.29373q-1.19988.03984-2.39976.0797l-.21749.40164-.51583.0064c-.20448-.15516-.399-.42588-.61524-.44455-.74916-.06468-1.50589-.04169-2.25973-.05206l-.00986-.28029,2.76106-.22066-.01137-.15725-.99777-.142,1.10682-.58082a.50741.50741,0,0,0,.03031-.15719q.00674-18.27565.00793-36.5513a2.37678,2.37678,0,0,0-1.67626-2.36742c-.40569-.15834-.81712-.302-1.22594-.4523l.02309-.35888,2.62518,1.00739.47488.89327c.24289-.51317.38482-.813.52648-1.11351.08627-.02379.17281-.047.25935-.07018Z" fill="#b34e40"/><path d="M8.25886,7.19636c2.50125,2.17046,2.54092,6.39787.08422,8.97484C5.62723,14.42858,5.5807,9.46977,8.25886,7.19636Z" fill="#262d1a"/><path d="M80.3253,15.48035a6.28432,6.28432,0,0,1-.29645-8.97943C82.694,8.30833,82.8807,12.96368,80.3253,15.48035Z" fill="#262d1a"/><path d="M42.25388,77.34765a.32769.32769,0,0,1-.205.06376q-6.0963.20676-12.19208.41145-4.1872.13566-8.37516.24747c-.42762.01215-.85588.0017-1.40315.0017V38.0498c.36094-.17669.63181-.30928.90332-.4401q.17869-.549.35612-1.10165.048.05264.09786.10356l.16929.16927.00323.003-.15872,1.43976-.34419.03053.001.02569-.6518.03748q-.00343,18.86044.00188,37.72089a13.05144,13.05144,0,0,0,.19772,1.61808l.48408.01152.478-.01223,1.683-.03019L41.543,77.01911l.23322-.01682.46753-.04713Z" fill="#ad2c27"/><path d="M44.88468,35.15061,42.2595,34.14322l-.25385-.21209V27.99369h2.879Z" fill="#fef3f0"/><path d="M48.26054,34.17049q-1.05757.34485-2.11517.68969l-.11592-.46223.006-4.80728.00007-.23652-.00082-.96653.09683-.46221a.27007.27007,0,0,0,.20582-.06514l.23754-.00721.48722.00239,1.89124.15123v5.89324Z" fill="#fef1ed"/><path d="M52.30386,77.58828a14.59725,14.59725,0,0,1-2.77438,8.36556q-.02023-4.27395-.04022-8.54805.44623-.00228.89206-.00426l1.26947.05806Z" fill="#fef1ed"/><path d="M69.37655,38.17536q-.11347-.23354-.22686-.4675c.34358.055.68707.11043,1.1086.17846V78.09558c-5.93715-.19088-11.81294-.37978-17.68869-.5681l.00831-.37538.95316-.00537,1.45222.0354,5.50663.20823,1.69189.04638.70527.0225.25744.00882h6.83179c0-.40741-.00053-.84167.00006-1.27592q.02544-18.51727.02376-37.03451C69.99972,38.82995,69.59351,38.50277,69.37655,38.17536Z" fill="#ad2c27"/><path d="M41.46327,85.493v4.02492l-4.16158,2.4594A8.4425,8.4425,0,0,1,41.46327,85.493Z" fill="#fef1ed"/><path d="M21.33789,36.50805q1.07932-1.19737,2.159-2.39436l.04843.04814q.08535.35373.17093.7077l.01518.95685a1.363,1.363,0,0,0-.18264-.00488q-.09961-.0054-.19934-.00215l-.64643-.21532V75.36967h2.22465l1.50521-.04259,1.65568.01213.00646.30367H22.2863c0-.478,0-.95309,0-1.42822q.00031-18.05335.00036-36.10673a2.67762,2.67762,0,0,0-.03446-.948c-.07356-.18229-.41978-.25455-.64392-.37607l-.00324-.003-.16929-.16927Q21.38592,36.56069,21.33789,36.50805Z" fill="#ad2c27"/><path d="M20.58189,26.42681c-1.21319,1.854-2.17891,2.13318-3.64466,1.15256.46254-.27366,1.15923-.453,1.38079-.87924.24531-.472.05608-1.16983.05608-1.78306l6.68461.52522Z" fill="#fbe5dd"/><path d="M50.82691,93.17a4.223,4.223,0,0,1-3.44538.91424,13.9792,13.9792,0,0,0-3.78748.00219A4.22016,4.22016,0,0,1,40.15812,93.17Z" fill="#fbe5dd"/><path d="M42.71361,97.18147V95.01576h5.80766l.10062.44979Z" fill="#fbe5dd"/><path d="M48.95335,33.89992V28.00668l-1.89124-.15123,1.44315-.44778a3.06161,3.06161,0,0,1,1.88218,2.65791,26.67682,26.67682,0,0,1,.19272,3.63831Q49.7668,33.802,48.95335,33.89992Z" fill="#ec3b32"/><path d="M50.6291,91.74293H40.38582l-.1072-.32374a13.3636,13.3636,0,0,1,2.51991-.61633,46.43075,46.43075,0,0,1,4.74431.05376c1.05473.05269,2.10257.24321,3.1535.37206Z" fill="#fbe5dd"/><path d="M42.00565,33.93113l.25385.21209-.02307.35888-.69391-.1253-1.05978-.1074-16.60007-.06615-.33718-.0413-.04855-.04826a2.94631,2.94631,0,0,1,.98672-.40525q7.45951-.039,14.91931-.00686C40.27085,33.70549,41.1381,33.851,42.00565,33.93113Z" fill="#ad2c27"/><path d="M49.48905,77.40594q.0202,4.27395.04043,8.5479l-.53739.044q-.04116-4.29624-.08237-8.59257Z" fill="#ee4b3f"/><path d="M29.77277,22.956l-.481.02275-.20964-.1569V20.42508l1.846.787C31.36549,22.33825,30.56394,22.64366,29.77277,22.956Z" fill="#fbe5dd"/><path d="M42.25388,77.34765l-.0101-.39249c.75252-.03145,1.50845-.03182,2.2554-.11391.21514-.02364.40441-.28268.60553-.43379l.5507.00431c.2013.15349.39138.41917.60588.44061.82508.08246,1.658.08673,2.48794.12017l-.00909.37225q-1.30941.01485-2.619.02986-.6246-.00459-1.24879-.00939Q43.56319,77.35651,42.25388,77.34765Z" fill="#b74e43"/><path d="M27.37334,21.43055l1.18794-.91131v2.31655A1.213,1.213,0,0,1,27.37334,21.43055Z" fill="#fbe5dd"/><path d="M27.37334,21.43055a1.213,1.213,0,0,0,1.18793,1.40524l-.21824.50764-1.84744-1.24814h-2.24c.65759-.073,1.32214-.1095,1.97024-.23261A6.8221,6.8221,0,0,0,27.37334,21.43055Z" fill="#ee4b3f"/><path d="M48.74014,77.3448l.00909-.37226.96176.06762.29582.02019,1.61362-.01891.4731.0195.48438.09116-.00831.37538c-.08854.02-.177.04052-.26564.06093q-.32668-.06454-.65319-.12879-.63474-.029-1.26945-.05809-.44592.00206-.89206.00426-.29-.00014-.57954-.00055A.25762.25762,0,0,1,48.74014,77.3448Z" fill="#a52926"/><path d="M29.77277,22.956c.79117-.3123,1.59272-.61771,1.15531-1.74392l.53142.94108-1.4489,1.18936Z" fill="#ee4b3f"/><path d="M49.23977,113.30674l-.95241-.81352.24559-.27156q.34044.21384.68081.42788Q49.22671,112.97834,49.23977,113.30674Z" fill="#d39086"/><path d="M46.02945,34.398l.11592.46223c-.08652.02321-.17306.0464-.25933.07019Q45.958,34.66475,46.02945,34.398Z" fill="#ec3b32"/><path d="M46.13153,27.92541l-.09683.46221Z" fill="#ec3b32"/><path d="M46.57489,27.85307l-.23754.0072Z" fill="#ec3b32"/><path d="M48.99293,89.5974l.00785-.24937a1.16023,1.16023,0,0,1,.08015.1829C49.08452,89.54417,49.02394,89.57479,48.99293,89.5974Z" fill="#ee4b3f"/><path d="M46.03552,29.35415l-.00007.23652a1.00864,1.00864,0,0,1-.075-.16907C45.9566,29.40667,46.009,29.377,46.03552,29.35415Z" fill="#ec3b32"/><path d="M29.08209,22.82181l.20964.1569Z" fill="#ee4b3f"/><path d="M34.56429,107.12613l.07088.0253-.05308-.047Z" fill="#eb2828"/><path d="M67.98642,91.80276l-.18631.10551c.047-.0804.07695-.13159.10668-.183Z" fill="#eb2828"/><path d="M45.72977,74.19768c-.03229-.34991-.09266-.69981-.09281-1.04973q-.00731-17.61217-.004-35.22435c0-2.26866.25529-2.60644,2.46048-3.27114.22687-.06838.44608-.1622.66883-.2442a.23413.23413,0,0,0,.2135-.03029l.48043-.04587,1.47179-.11975.29-.013q7.17185.0152,14.34365.03783a9.88131,9.88131,0,0,1,1.272.16645q.01236.58563.02479,1.17129c-.02271.55648-.06506,1.11294-.06523,1.66943q-.00541,17.83888-.0043,35.67779c-.00009.43746-.0297.87491-.04555,1.31236l-20.66583-.01292Zm7.61669-27.28763-.06359-.22482-.46259-.018-.70131.03067-.7691.00337-.48622.18067.05646.32329,2.13075-.12529.29534-.16473Zm11.26107,9.59509.0018-.00259.15-.15676-.18339-.112-1.67155.01808-.01492.38289a.15852.15852,0,0,0,.14736.04328l.58344-.03072.71395-.06766ZM58.56446,68.46488l-.94-.21914-.20983.32693Zm-7.182-25.84477-.71073-.04944.47408.44149,1.18642.0101,1.10547-.15788-.0465-.3586-1.29894.12294Zm3.833,13.64213-.64453.319.07694.22754.57037-.09048.92388-.05976-.00362-.35134ZM60.48754,42.3476l-.47133.19781.04891.20965,1.35052.15723.06555-.23-.41771-.23692Zm.15495,14.18692.33331.08036.50758-.07206-.00484-.28491-1.43881-.18148-.06436.30936ZM52.19887,71.44484l.57243-.0155.68787-.14016-.1584-.3878Zm6.35649-4.18664-.99421-.29279-.09751.44168.63718-.07693Zm4.35675-16.33459.69243.00922,1.12626-.112-.03539-.30991H62.86628Zm-10.101-6.49885.63114-.17432-.03914-.22629H50.89438l.0109.4006ZM64.56292,61.54367l-.70685-.03383-1.15648.07831.02556.44393,1.93979-.14793ZM52.58528,64.76338l.34807-.07035.49643-.18547-.05191-.21333-2.47036.12249-.00976.34666Zm-.54334-16.7499-.60419-.00785-.54845.06133,2.49228.40871.0243-.56122h-.81312Zm-1.17349,8.329-.00163.53189,2.56177-.15654-.02316-.37535ZM53.427,70.18183l.00666-.354H50.86517l.00056.354ZM50.89339,49.40809l-.00286.51157,2.54288-.17311-.03386-.46243Zm-.03049,9.59469.00321.56164,2.56786-.15885-.01636-.40279Zm.03124,6.67248-.0301.5322,2.58218-.11617-.013-.416Zm2.54193-10.412-.03294-.462-2.53678.115.00915.347Zm.01218,6.78229-.02337-.46452-2.58161.14461.00448.31991Zm-.01476-23.01093-.00394-.45816-2.58426.11475.0024.34341Zm-.003,6.61029-.01876-.34512h-2.5384l.00388.34512ZM50.89886,67.11l-.02336.5286,2.56043-.15652-.023-.37208Zm-.0066-9.52106-.00011.34459h2.53478l.00011-.34459ZM53.45377,68.7543l-.043-.46511-2.54857.15776.02429.44355Zm-3.45435-8.65486-.1301-.51052-1.97552.4535.12169.44955Zm3.44667.51545-.04827-.4645-2.51407.15341.01868.43749Zm-2.569-9.97013.00707.52026,2.48324-.14925-.01579-.371Zm.02571,1.42455.00531.52912,2.51977-.16253-.01469-.36659Zm.01028,1.585-.00493.50518,2.522-.15092-.0277-.35426Zm-.95931,13.67124L49.86326,66.84l-1.97081.41135.08306.413Zm-.006,2.85309-.08305-.49226-1.91283.41656.08788.38769ZM47.95731,41.47931l.10251.45629,1.90041-.3478-.08321-.442Zm5.45562,21.78347-.00318-.30139H50.89529l.00337.30139ZM49.94281,40.1345l-.08365-.40246-1.9146.39169.08244.39035Zm3.48728,1.55958-.03634-.44125-2.50285.138.00692.30327ZM49.93041,71.566l-.08845-.45014-1.90143.43309.09622.38934Zm12.80715-5.99752-.01729.49991,2.01166-.11561-.01815-.4757ZM62.72163,49.292l.00741.473,2.02231-.10543L64.745,49.292ZM62.756,43.91l-.00946.47067,1.93595-.14606-.03326-.44061Zm-.05329,1.25543.00483.33466h2.01312l-.00916-.45672Zm.00329-3.9269.00273.32741h2.00432l-.0029-.32741Zm2.015,26.1541-.0304-.49245-1.97662.13453.03746.4687ZM50.91174,39.95751l.01611.4362,2.47238-.11207-.01391-.32413ZM62.7323,39.806l.00545.47359,1.98847-.13792-.00678-.33567Zm1.98681,15.33263-.00882-.428-1.99418.10484.008.32318ZM64.7004,46.9337l-.00617-.41389-1.98364.09142.00014.32247Zm-1.99142.92685.01471.29578H64.719l-.0212-.44131ZM49.93321,61.48088l-.08994-.43427-1.89813.43788.0926.36954Zm14.79411,1.682-.01905-.25711H62.73451l.03794.38814ZM49.94017,44.41022l-.09754-.42812-1.90371.39652.10545.43744Zm-1.97248,18.447.07566.4005,1.91111-.33826-.07917-.421ZM62.69209,42.5018l.0237.46366,1.996-.15032-.0223-.45381Zm-12.75906.523-.079-.481-1.88157.40087.08382.39651Zm.02024,25.69461-.07885-.40958-1.86864.34606.07954.38218ZM64.7251,70.0769l-.00692-.32484h-1.998l.00913.41473ZM49.93756,38.89213l-.09769-.47574-1.89292.44736.09645.39465ZM64.63188,53.88942l.06892-.45012-1.998.10723.00062.34289ZM49.85265,45.88581l.00891-.44548L47.959,45.8064l.07661.40825ZM47.931,65.811l.08584.41927,1.93782-.36648-.08626-.42409Zm2.00554-18.51918-.09672-.47859-1.8567.43032.09293.38217Zm.02,11.43254-.11194-.49712-1.86487.43005.10183.38042Zm11.52711-8.93792.06827-.47831-1.55077-.22372-.06254.45113ZM56.177,41.705l-.07407-.52851-1.49786.27034.07464.417Zm6.53609,15.76513.03.49626,1.97673-.13333-.01936-.45483ZM56.135,63.26276,56.1087,62.79l-1.49542.25889.06668.382Zm-8.16147.98353.0826.45115,1.89036-.37631-.0749-.39929Zm14.7556,6.70432.01248.46031,1.98336-.1374-.03109-.43239Zm.0086-32.38837.01044.45833,1.96992-.12994-.02007-.32839Zm-2.72525,9.09935-.02889.49635,1.51471.113.03392-.40344Zm2.72111,4.307.00283.29835h1.971l-.00569-.29835Zm-6.59936,5.97371-.02414-.469-1.5199.20093.04781.41574Zm8.55588,1.31879-.00758-.44527-1.96738.12119.02405.32408Zm-1.966.913.00851.26207h1.9821l-.0084-.26207Zm1.99146,4.41754-.01259-.3H62.72567l.00223.3Zm-4.679,3.45593-.09583.49157,1.55316.21971.07289-.43433Zm4.65758.56741.009-.26849h-1.978l-.00723.26849ZM47.9286,54.34723l.13108.43071c.331-.07227.66157-.14684.99321-.21613.29573-.06179.59267-.11775.88908-.17629l-.09014-.42372ZM60.02124,65.42185l-.01807.44954,1.50854.13109.03123-.392ZM60.042,69.521l-.08607.44017,1.52721.1949.05462-.39625Zm1.31626-7.45847.16848-.44674-1.529-.24278-.08.4607ZM54.608,38.71366l.09227.45325,1.47031-.23744-.07085-.43292Zm.01571,1.25774.05869.43917,1.467-.2077-.05361-.40118ZM47.94788,52.902l.11961.44054,1.87728-.37744-.07871-.40611Zm1.98474-4.21093-.09062-.47184-1.8603.46049.10272.37771Zm11.5325-3.021.07465-.46047-1.49893-.24188-.07266.44845ZM56.14241,64.64272l-.05963-.44624-1.378.32253.07626.32106Zm-6.22034-7.36208-.09632-.48083-1.88893.43481.08541.36391Zm-1.98021-1.54037.07678.46571,1.909-.41733-.08037-.37758Zm13.525-3.30642.05713-.43529-1.50265-.20582-.05806.44073ZM54.58078,69.861l.07068.4611,1.51947-.22119-.0563-.42668Zm5.45738-12.5484-.06883.45317,1.48994.128.0384-.40142Zm-3.87025,2.01046-.04818-.40218-1.51082.18564.0476.41158Zm-8.214-7.845.089.4303,1.88981-.36642-.07447-.38918Zm-.02064-1.37635.09368.38526,1.90294-.39951-.09976-.41823ZM61.43968,60.603l.04817-.46336-1.50894-.16454-.04818.44133Zm-6.82247,1.09808.03906.45375,1.5132-.18029-.0308-.39726ZM61.34,59.41849l.176-.43208-1.46329-.25249-.087.4393Zm.10834-5.37152.07131-.48848-1.50052-.18093-.05027.43264ZM56.16242,68.67858l-.0478-.40434-1.49079.19121.04457.38331Zm-.06115,2.6735-.02931-.41889-1.4502.22569.05685.37364ZM56.13861,44.354l-.05655-.45239-1.44826.22357.07374.38707Zm-1.53269,7.81886.0798.39126,1.464-.244-.08715-.42358Zm6.83773,3.10589.05078-.4264-1.453-.1884-.04555.3931Zm-1.39351-4.93133-.0712.40047,1.46633.22872.07542-.40162Zm1.37165-8.61079.08739-.48815-1.49685-.17773-.06511.44164ZM57.38945,69.68931l.0685.45374,1.18415-.21557-.05945-.38177Zm-1.23267-9.18085-.06036-.38105-1.44206.23036.05968.37925Zm-.04324-9.55-.03991-.44124-1.43048.25225.0635.36952ZM56.0813,49.7517l.03531-.45534-1.48878.17576.03481.38371Zm2.551-1.61192-.09117-.45909-1.13619.253L57.4779,48.3Zm-4.01459-2.82145.09233.45279,1.4514-.1838-.05342-.42539Zm2.762,16.28508.06537.39122,1.21362-.18526-.06562-.39576Zm2.62213,9.17144-.02878.48061,1.50955.14039.05582-.37395Zm1.44459-23.70064.05155-.43509-1.45563-.19261-.04855.40088Zm-2.84359-1.62015-.044-.45942-1.16944.214.074.42419Zm.03466,11.04-.05165-.38567-1.16537.16117.05056.37967ZM56.1446,42.93347l-.03509-.42222-1.44.1139.03575.43118Zm2.51966,17.49859-.05412-.428-1.21567.16324.05083.39921ZM54.6039,54.99193l.07486.40918,1.482-.20512-.07415-.42911ZM57.38615,65.588l.09422.44178,1.13823-.27091-.0813-.36555Zm-1.22006.40341-.06323-.41259-1.47488.22172.06331.38872ZM60.03267,39.6461l-.05085.38964,1.46285.21855.0571-.4345Zm.00973,4.09219-.04736.4698,1.451.15269.04865-.41274Zm1.40071,23.7355.039-.4402-1.43477-.14187-.02649.36635Zm-4.037-8.5549.069.45544,1.14637-.21563-.062-.37113Zm.0521-7.01923-.02589.44445,1.18433-.1263-.033-.4026Zm-1.31388-3.64475-.05659-.40246-1.40361.20163.05411.37907Zm.00135,19.19241-.05439-.4585-1.44757.23344.06448.37407ZM58.61874,55.0607l-.05169-.36855-1.15416.16467.05159.3688Zm-3.9856-8.28589.07667.45782,1.455-.25735-.06748-.40124Zm4.00079,10.99113-.05278-.40241-1.18357.15537.05212.39539Zm-.0092-10.9021-.09661-.44193-1.14075.26952.07836.37366Zm-2.49184,7.138-.04767-.489-1.40773.22824.06.38221Zm1.26125-.46489.07678.45894,1.15714-.19706-.05026-.38487Zm1.25127-3.9997-.06936-.41075-1.18218.19913.06873.4077Zm-1.22426.98493.05717.44579,1.1408-.1756-.05294-.38061Zm4.0068-11.494.04254-.45506-1.421-.15023-.05263.35592ZM60.06286,62.63421l-.05632.43021,1.42.20137.06241-.38111ZM57.40824,42.53833l.06513.36652,1.13333-.188-.06939-.38765Zm4.01454,22.17318.04614-.434-1.43966-.18215-.058.36975ZM57.39985,41.285l.07223.36354,1.14636-.20948-.07452-.37486Zm1.201-2.46394-.061-.374-1.12256.16756.05818.36281Zm-1.16376.95581.02659.43465,1.17048-.19427-.05878-.374Zm-.01917,23.047.07857.41035,1.11972-.22529-.0729-.35644Zm-.02594,8.1797.064.366,1.16966-.18541-.06591-.37981Zm.01788-6.72371.06989.401,1.15338-.21144-.06765-.373Zm1.1684-20.06839-.037-.41686-1.09622.17887.04227.31272Zm-7.64945,26.8384-.01434.38331h1.07716l.01578-.25612Z" fill="#f8f0ed"/><path d="M52.57791,77.1521l-.48438-.09115-.4731-.0195q-.8068.00945-1.61377.019-.148-.01-.29567-.0203l-.96176-.06762c-.83-.03343-1.66286-.0377-2.48794-.12016-.2145-.02144-.40458-.28712-.60588-.44061l4.05043.08235.45657.01606.40731-.04808.79911.05045,5.531.1703,1.90179.05423,10.09486.13879a6.3722,6.3722,0,0,0,.27-1.2924q.02363-18.01034.023-36.02069a10.19964,10.19964,0,0,1,.18714-1.38742c.217.32741.62318.65459.62359.98227q.02294,18.51722-.02376,37.03451c-.00059.43425-.00006.86851-.00006,1.27592-2.31645,0-4.57412,0-6.83179,0l-.25744-.00879-.70527-.0225-1.69189-.04637-5.50664-.20824-1.45221-.0354Z" fill="#e8c8c1"/><path d="M68.79254,52.185q.00012,1.16825.00028,2.33652,0,1.47177-.00014,2.9435,0,1.40819,0,2.81641.00006,1.47178.00006,2.94352,0,2.00823.00006,4.0165.00007,1.47178.00006,2.94352,0,1.16823,0,2.33649-.00054.87176-.00118,1.74346l.06888,2.043a9.30322,9.30322,0,0,1-1.15908.13055c-2.14109-.01837-4.282-.05894-6.423-.0919l-2.71388-.10261c-.2252-.01418-.45039-.02836-.6694-.04292.59372-.17306,1.18127-.34575,1.76882-.51844l.46438-.00027.61486-.03574,7.21033.06171a8.04852,8.04852,0,0,0,.22213-1.33331q.0199-18.787.01314-37.574l.0081.01818.63909.05644-.014.36483-.00388.30573-.00149.417q-.012,2.31093-.024,4.6218-.00007.56826-.00012,1.13653.00011,2.19176.00014,4.38348-.00009.56824-.00013,1.13652Q68.79261,50.71331,68.79254,52.185Z" fill="#f6eae7"/><path d="M60.12848,75.68241l-.46437.00032L58.82467,75.16l.00674-.38747,8.15207-.09987a.3381.3381,0,0,0,.17535.01509l.11179-1.41808q-.016-18.41607-.026-36.83213a.97647.97647,0,0,1,.35953-.74563l.16279.84889-.0285.25781-.01809,38.4098-.02611-.01946-3.6313.10055-3.311-.01922Z" fill="#f8f0ed"/><path d="M67.72035,75.20841q.009-19.2049.01808-38.4098.09887-.00537.19788-.00641l.25257.00884q-.00169,18.787-.01314,37.57405a8.04852,8.04852,0,0,1-.22213,1.33331Z" fill="#b74e43"/><path d="M61.2785,76.34667c2.141.033,4.28187.07353,6.423.0919a9.30322,9.30322,0,0,0,1.15908-.13055l.03594.56785-10.09484-.1388-1.90181-.05422q-2.76549-.08516-5.531-.17027l-.79913-.05048-.40729.04808-.45659-.01605-4.05043-.08236-.5507-.00431-5.142.05974-2.02821.1-7.56873.14348-1.791.092-1.48394.00163.04246-.38919,3.27887-.08079,1.27834-.06615,13.436-.36025.51582-.0064.10832.01892.10654-.02716c2.77772.08257,5.5552.18048,8.33353.2244.2832.00448.57151-.31514.85709-.48395l.04608.02446c.06859,1.08925.94344.19543,1.3168.5353l.82534-.03629.65305.04427.67557.04253Z" fill="#b04136"/><path d="M66.98348,74.67266l-8.15208.09987c-.47583-.01806-.95162-.05068-1.4275-.05187-3.49975-.00874-6.99963-.00029-10.49907-.03648-.27733-.00287-.55159-.30147-.82728-.46264l20.66583.01292Z" fill="#b34e40"/><path d="M68.79269,42.585q.012-2.31088.024-4.6218Q68.80468,40.27406,68.79269,42.585Z" fill="#d39086"/><path d="M68.79271,48.105q0-2.19174-.00014-4.38348Q68.79261,45.91323,68.79271,48.105Z" fill="#d39086"/><path d="M68.79271,63.225q0-1.47175-.00006-2.94352Q68.79264,61.75322,68.79271,63.225Z" fill="#d39086"/><path d="M68.79268,57.46507q.00007-1.47174.00014-2.9435Q68.79271,55.9933,68.79268,57.46507Z" fill="#d39086"/><path d="M68.79283,70.185q0-1.47175-.00006-2.94352Q68.79276,68.71324,68.79283,70.185Z" fill="#d39086"/><path d="M68.79254,52.185q0-1.47175,0-2.94353Q68.79252,50.71326,68.79254,52.185Z" fill="#d39086"/><path d="M68.79166,74.265q.00061-.87171.00117-1.74346Q68.7922,73.39322,68.79166,74.265Z" fill="#d39086"/><path d="M67.27062,73.26967l-.11179,1.41808Z" fill="#e8c8c1"/><path d="M66.85846,35.57488q-.01242-.58565-.02479-1.17129Q66.8461,34.98925,66.85846,35.57488Z" fill="#b34e40"/><path d="M68.83607,36.87566l-.63909-.05644Z" fill="#c06b5b"/><path d="M49.45619,34.3321l-.48043.04587Z" fill="#b34e40"/><path d="M68.8182,37.54622l.00388-.30573Z" fill="#d39086"/><path d="M67.93631,36.7922q-.099.001-.19787.00641l.0285-.25781Z" fill="#bc6354"/><path d="M51.218,34.19931l-.29.013Z" fill="#b34e40"/><path d="M41.54252,34.3768l.69391.1253c.4088.15034.82023.294,1.22592.4523a2.37678,2.37678,0,0,1,1.67626,2.36742q-.00045,18.27564-.00793,36.5513a.50741.50741,0,0,1-.03031.15719c-.39822.209-.75252.3949-1.10168.58129a.16426.16426,0,0,0-.16973.10627c-.19363-.153-.38133-.42772-.582-.43755-.7798-.03819-1.56371.00775-2.34609.02238-.55861-.01318-1.11716-.0329-1.67585-.0385q-7.96914-.07982-15.93833-.15554a7.28016,7.28016,0,0,0,.41148-1.692c.00457-.86177-.275-1.72762-.24939-2.58624.08383-2.81135.33471-5.61956.35722-8.43029.01549-1.93361-.33194-3.86818-.358-5.80446-.05864-4.35726-.00714-8.7159-.02482-13.07388-.00563-1.38736-.08811-2.77441-.13543-4.1616.16533-.14546.46513-.28409.4729-.43752.03528-.6965-.01176-1.39718-.02918-2.09635l-.01518-.95684.16637-.66628q8.3.03307,16.60015.066Q41.01276,34.32287,41.54252,34.3768Zm-1.4112,32.86189-.36928-.12711-.78214.0621-.57409-.08949-.87894.06036.02875.33623h2.52543l.053-.23489ZM26.38361,56.50159l.00065.00527c.498.07572.99481.16649,1.49566.20544.05414.0042.13165-.29194.19831-.44876a.21.21,0,0,0-.21208-.01632l-.48813-.01743-.96147.00249-.18267.16183Zm6.98964,13.17389-.92479-.072-.04706.23317.42964.17563.71435.05391Zm-.01017-1.423-.9417.21632,1.14958.10853Zm-.95766-20.17137.74438.17655.43825-.148-.1074-.39689Zm3.83348,8.39694-1.3518-.2578-.04109.44793.9304.04573Zm-3.09119-6.78136.45682-.23107-.13345-.39141-1.0639.44567ZM30.426,56.52739l.36468-.01507.12172-.36321-1.411.14162.05379.37621Zm8.22689-15.15161-1.09143-.092-.03976.35036,1.07924.15367h1.52688l-.01455-.412Zm-.2378-1.45459h-.86741l-.02271.25244.854.14532h1.74031l-.01271-.39776ZM40.164,49.92352l.00177-.537H37.53864l-.01577.40275Zm.02073,16.12823-.04911-.32161H37.51272l.01825.32161Zm-.026-18.98938-.04124-.33606H37.54l.00611.33606ZM37.5342,45.27718l.00081.33887h2.62413l-.00157-.33887Zm2.5924,9.982-.00264-.333H37.53642l.00272.333Zm-2.58493,13.026-.02989.44421H40.165l.0017-.31662Zm2.58838-8.732-.0059-.52H37.52273l-.00338.39606Zm-2.61488,2.10857.00033.348h2.62617l-.0004-.348Zm2.61928-3.695-.03178-.35129H37.505l.00683.35129Zm.02822-18.94989V38.6834H37.51858v.33346Zm-2.83508,30.788c1.41567.79046,2.46108.73411,2.68624,0ZM37.563,56.35665l-.001.31988h2.53639l.001-.31988Zm.01042-5.72472-.03157.32723h2.56349l-.00857-.32723Zm-.02365,3.04593.00732.302h2.5892a5.98066,5.98066,0,0,0-2.29334-.42039C37.75361,53.5554,37.65086,53.6363,37.54972,53.67786ZM40.108,60.734l.01519-.48245H37.527l-.01088.36749Zm-2.53444-8.7504-.02267.43737q1.2743.072,2.54859.144l.0224-.43436Zm-9.31726,1.967.00513-.34256H26.251l.02444.34256Zm9.31054-6.07433-.01643.41093h2.56738l.00124-.29649ZM40.11749,64.8561l-.01815-.50524h-2.572l-.00695.37832Zm.98758-5.20084-.0778.45745,2.02162.35259.08387-.48356Zm-3.55047,11.335-.04034.42666h2.60119l.00191-.29925Zm3.5565-4.12157L41.048,67.302l2.00439.33167.06456-.45953Zm-3.56081-3.92427-.011.32369h2.59012l-.00274-.32369Zm3.569,2.51-.07381.41883,1.98074.35914.07921-.44748Zm.01719,4.23993-.09953.4889,1.96159.28519.06784-.42768ZM26.239,45.175l.007.30584h2.02969l-.0102-.30584Zm14.89337-4.03-.09054.45264,1.943.33194.08315-.4155ZM26.29,42.35106l-.0263.48907,2.01663.09823.01826-.43611Zm13.82333.56294.00928-.30219H37.55975l-.0021.30219ZM26.257,66.90562l.02317.45061h2.001l.00121-.34156ZM28.226,41.73251l.05193-.46424H26.2602l-.00416.33634ZM41.15705,58.21825l-.1046.44165,1.94039.39133.09766-.41092ZM28.253,49.76678l.00391-.47652H26.23879l-.00574.36439Zm.02834,16.16949-.00384-.31485H26.24821l.00684.31485Zm12.85169,5.20521-.07867.431,1.94906.339.07732-.41773ZM26.24872,46.62116v.30516h1.99172v-.30516Zm16.74,18.0869.0901-.49308-1.97408-.27676-.06439.4183Zm-.09988-2.88541.16281-.40427-1.88425-.315-.07025.39454Zm-1.7496,6.47965-.08037.4144,1.91827.334.07788-.38928ZM28.26308,48.18648,28.257,47.8858H26.26507l.01053.30068ZM26.25373,39.8076l.005.30836h1.99168l-.0092-.30836ZM41.165,39.72024l-.08774.451,1.92032.30479.07123-.39274Zm1.69551,3.636.18687-.41413-1.90152-.38868-.0947.42544Zm.12857,1.43538.08394-.47875-1.92035-.26014-.05443.39083Zm-.07048,18.472.1111-.44008-1.91331-.30794-.0705.42042Zm-16.63964-.47349-.02315.31816h1.96578l-.00029-.31816Zm.0028-8.09352-.00532.45292H28.263l.00645-.33081ZM41.15559,38.43417l-.08975.47487,1.93033.32065.07818-.41224ZM41.148,56.84922l-.07834.43165,1.94481.31228.074-.40795ZM31.04425,49.54861l-.10869-.516-1.50946.34107.09959.42752Zm-.00233,20.39008-.084-.449-1.53629.26769.08446.45171Zm3.82693-7.13193-.01524.44712,1.47724.11772.03-.41437ZM31.05,48.08025l-.095-.47075-1.53681.29843.09291.45366Zm-1.64424,9.44681.1178.49013,1.52655-.32107-.08438-.42517Zm5.4595-17.70821-.04753.42088,1.50284.17828.04895-.43569Zm-6.64545-.79828.0432-.44585H26.27115l-.01093.3492Zm.04755,31.02275-.01527-.23389H26.29383l.03048.23389ZM34.8561,41.244l-.04924.46143,1.50595.15527.04831-.4605Zm-8.56783,2.57091.00956.41054h1.9305l-.01162-.30683Zm14.85433,11.615-.05744.40123,1.93477.31757.06076-.44051ZM28.247,71.29468l-.02051-.29309H26.26293l.00558.29309Zm-1.98395-3.00424.00173.289h1.99187l-.00156-.289ZM42.97467,46.1897l.07887-.38183L41.16439,45.434l-.08474.40831Zm-1.83025.6737-.05544.46593,1.88478.25187.0587-.40657ZM26.27456,51.86556l.00221.41766H28.253l.00372-.31715ZM43.0172,53.31318l.0697-.40422-1.93406-.3194-.07537.42491Zm-.00149,1.44813.08113-.41339-1.9283-.3577-.08458.41891Zm-12,.318-.073-.49312-1.52111.29191.08537.43982Zm-2.77483-4.193-.00591-.30616H26.27955l.00374.30616Zm.00338,7.06729.0066-.43458H26.26746l.001.3311Zm2.70508,1.2745.01369-.48372-1.5277.22279.06373.4402Zm-2.7081.00918.0045-.27445H26.28331l-.00451.27445Zm.00878,1.23366-.00927-.29136h-1.98l.0033.29136Zm1.18273,1.11295.0628.47329,1.54508-.24845-.06469-.43115Zm-1.17832.34882-.00339-.30054H26.26992l.0001.30054ZM28.238,64.59384l.00726-.29965H26.24862l-.00156.29965Zm1.19461,1.0292.09039.47239,1.51261-.26334-.063-.42606Zm1.5905,2.9396-.06871-.51631-1.53574.2858.07965.43369Zm3.8522-18.02955.00108.45977,1.46108.10819.03169-.4063Zm-.02333-11.9634-.00617.42422,1.4716.08139.00387-.43849Zm6.30575,9.69891-.06306.45417,1.89073.31838.07505-.39956Zm-4.86134-3.74716.06979-.47085L34.862,43.94374l-.03739.40023Zm-.0325,20.31495.08428-.43181-1.47842-.129-.032.36308Zm6.72309-12.92911.0943-.45013L41.14981,51.191l-.05324.37543ZM31.022,45.41539l-.09041-.46507-1.50288.28347.07905.43618Zm-1.57857,21.6278.0652.47391,1.51107-.278-.058-.39627Zm5.40843-9.43042.00387.32978h1.471l-.0047-.32978Zm1.415-14.52588.06125-.39995-1.43485-.1786-.05812.3935ZM34.86919,58.92717l-.04749.391,1.4928.20319.05-.41279ZM31.02138,52.2039l-.07158-.42923-1.47136.23236.07117.42711Zm-.04874-1.35622-.00723-.50725-1.496.25281.06776.42887Zm.06462,9.5715-.09507-.511-1.48254.29833.076.40053Zm3.842,9.247-.04945.46769,1.51061.1547.051-.40169ZM42.991,50.47124l.06545-.43124-1.88909-.28657-.06174.40534ZM34.88375,61.53413l-.04662.457,1.48246.15165.04926-.39411Zm-3.86849-7.73152-.07874-.48145-1.494.295.07858.431ZM29.4434,41.2563l.08279.49273,1.49408-.2941-.0646-.38807Zm5.45851,29.68982-.0005.41778,1.41482.1615.04855-.378Zm-.00814-10.85244-.04734.4475,1.47282.157.04412-.39946Zm-1.37188-14.4623.07189-.4782-1.2203-.10433-.03417.39625Zm1.355,22.60819-.02646.45833,1.4749.14424.04526-.39161Zm1.45691-.64807.02977-.4118L34.871,67.06482l-.02837.40135Zm-3.94562-6.1797-.05658.46841,1.22575.11054.05064-.38449Zm3.85551-11.51441.07482-.45847-1.44811-.13729-.03784.37636ZM30.903,46.88492l.04913-.43918-1.47406.19172.03959.40206Zm2.6101,9.79222.0591-.4629-1.17874-.05159-.02483.35411Zm4.74185-12.60923.01426.26h1.83637l-.015-.26Zm-8.782-.11013.09389.46975,1.46155-.34735-.08071-.36632ZM31.009,38.846l-.07528-.46592-1.455.22707.06168.4141Zm-.01078,3.89773-.07569-.46505-1.463.28448.07689.40973ZM29.4743,39.85317l.08307.43951,1.46037-.28244-.0743-.39536Zm6.78092,15.56722.07628-.47266-1.46576-.12939-.0369.376Zm-2.71247,10.58.045-.38753-1.20912-.14721L32.3334,65.85Zm-1.1251-8.6738-.06839.45751,1.19947.13041.0555-.381Zm2.475-9.50116-.05862.45766,1.44832.11747.04-.40435Zm1.35866-2.05808.06544-.466-1.45454-.10217-.03182.395ZM32.418,58.79274l-.03417.43117,1.16542.07881.03137-.38437Zm1.11435-6.40863.04418-.38121-1.17438-.13965-.04519.39206Zm2.731,1.74812.038-.455L34.881,53.57889l-.03289.40209Zm-3.90169,5.9-.0201.40744,1.22266.05789.01849-.3866Zm3.83437-7.465.12636-.40395L34.9045,52.01l-.041.35048Zm-1.31839-6.00016-.0694.41524,1.48855.24378.07316-.44268Zm1.38073,19.62122.09171-.46063-1.48177-.12851-.03754.401Zm-6.80806,4.82275.06709.39637,1.50236-.23947-.06578-.38061ZM33.49585,55.259l.07435-.42023-1.17159-.12825-.04824.3519Zm-1.06914,11.5891-.07971.43674,1.20614.13362.04441-.37775ZM33.53965,47.032l.05206-.396-1.1761-.16846-.0533.40306Zm-1.12,3.364-.04065.45546,1.16574.05752.03054-.38017Zm-.0288,3.03465-.03558.4052,1.18606.11607.03479-.39756Zm-.02448,17.38744-.00444.41467h1.1958l.02542-.26991Zm-1.36265-7.76461-.05988-.39119-1.45238.20611.06241.41214Zm1.436-20.732-.06338.45624,1.17155.09142.04038-.35892Zm-2.946,21.96384.08795.42605,1.44115-.23373-.061-.38758Zm2.92558-.20173-.03783.4483,1.15667.11113.05053-.35011ZM33.537,38.937l.02568-.37579-1.13976-.08269-.02521.37475Zm-1.1201.7046-.02818.45255,1.13319.05147.03028-.35861Zm.00293,23.045-.04969.37494,1.1586.14323L33.577,62.84Zm-.00708-21.61363-.02579.46456,1.14389.06951.03613-.3556Zm1.08343,3.23366.02412-.40782-1.10348-.08268L32.383,44.171Zm4.10268-.24058-.00663.227.63307.0399.00779-.267Z" fill="#f8f0ed"/><path d="M45.12646,75.908q-6.718.18013-13.436.36022l-1.27836.06618-3.27886.08078-.71251.01166-1.2195.02-.85432.01141-.57851.00949-.462.01175-.73444.02409-.4669.03529-.25242.01576-.343-.62926.00381-.26631q.01263-18.485.02155-36.97006a2.554,2.554,0,0,0-.08546-.46535l.15873-1.43975c.22415.12152.57037.19378.64393.37607a2.67762,2.67762,0,0,1,.03446.948q.00015,18.05337-.00036,36.10673c0,.47513,0,.95025,0,1.42822h5.80877l1.67743-.00775.61539.04558.6972-.00429,2.32041-.07064.91179-.01271.27827-.004,7.65593-.17776c.75384.01037,1.51057-.01262,2.25973.05206C44.72748,75.48209,44.922,75.75281,45.12646,75.908Z" fill="#eed6ce"/><path d="M43.82893,74.71787a.16434.16434,0,0,1,.16976-.10628c.32745.04688.66.09422.99263.14157l.01137.15725-2.76106.22066-1.38448-.00293-.31522.01609-7.15013.07731-1.39492-.15283a4.09891,4.09891,0,0,1,1.10125-.34325c2.57093-.04463,5.14261-.04557,7.71405-.06052Z" fill="#e8c8c1"/><path d="M46.07755,74.22154c.27569.16117.54995.45977.82728.46264,3.49944.03619,6.99932.02774,10.49907.03648.47588.00119.95167.03381,1.4275.05187l-.00672.38747-2.65619.07017-5.72115-.08355-.771-.02325-1.40306.00318-2.3964-.19289-.14706-.736Z" fill="#e8c8c1"/><path d="M55.04811,75.63336c-.28593.16923-.57424.48885-.85744.48437-2.77833-.04392-5.55581-.14183-8.33352-.2244l.00263-.3934q1.19988-.03987,2.39976-.0797l1.42809.07615.97757.01368Z" fill="#f6eae7"/><path d="M40.85715,75.12814l1.38448.00293.00986.28029-7.65593.17777-.27827.00394-.9118.01271-.01369-.38424q3.57505-.03864,7.15015-.07728Z" fill="#ae322c"/><path d="M49.68763,75.49638l-1.42809-.07615.0137-.29373q.70152-.00153,1.40305-.00328.3855.01157.771.02339,2.86058.04179,5.72115.08355l-.00016.355-1.07436.07311-.04621-.0245q-2.19093-.06228-4.38256-.12372Z" fill="#ae322c"/><path d="M45.85978,75.4999l-.00263.39343-.10655.02716-.10832-.01892Z" fill="#fbe5dd"/><path d="M27.0908,76.80435l1.48392-.00163,1.791-.092,7.56872-.14348q1.01409-.05,2.02822-.1l5.142-.05974c-.20112.15111-.39039.41015-.60553.43379-.747.08209-1.50288.08246-2.2554.11391q-.23376.02358-.46752.04708l-.23323.01688-18.2438.60627-1.68294.03019-.478.01224-.48407-.01152a13.05183,13.05183,0,0,1-.19772-1.61809q-.01353-18.86045-.00186-37.721.3259-.01876.65178-.03742l-.001-.02571q0,19.2885,0,38.57822h4.10611l1.221-.01825Z" fill="#eed6ce"/><path d="M25.21148,76.83235h-4.1061q0-19.2903,0-38.57822l.34418-.03051a2.55458,2.55458,0,0,1,.08545.46534q-.00657,18.485-.02152,36.97c-.02718.02554-.08071.05648-.07679.07566a1.10845,1.10845,0,0,0,.073.19066l.343.62923.25242-.01573.46689-.0353.73445-.02408.462-.01176.57851-.00948.85431-.01139Z" fill="#ae322c"/><path d="M21.61629,77.65559l1.68294-.0302Z" fill="#b34e40"/><path d="M21.10641,38.27984q-.32587.01869-.65178.03742Q20.78051,38.29862,21.10641,38.27984Z" fill="#b34e40"/><path d="M20.65421,77.65629l.48407.01153Z" fill="#b34e40"/><path d="M21.43575,36.61161l.16929.16927Z" fill="#bc6354"/><path d="M41.543,77.01911l.23323-.01687Z" fill="#b74e43"/><path d="M50.38132,77.40153q.63473.02906,1.26945.05809Q51.01606,77.43055,50.38132,77.40153Z" fill="#ca7e71"/><path d="M60.48992,77.39037l1.69189.04637Z" fill="#b65749"/><path d="M53.53107,77.14673l1.45221.0354Z" fill="#b65749"/><path d="M62.88708,77.45924l.25744.00879Z" fill="#b65749"/><path d="M23.28776,38.36024c.04732,1.38719.1298,2.77424.13543,4.1616.01768,4.358-.03382,8.71662.02482,13.07388.02606,1.93628.37349,3.87085.358,5.80446-.02251,2.81073-.27339,5.61894-.35722,8.43029-.0256.85862.254,1.72447.24939,2.58624a7.28337,7.28337,0,0,1-.41156,1.6923c.35019.20286.69328.56473,1.05194.58087,1.742.0784,3.4881.06416,5.23276.08273l-.03758.42637-1.44513.14023q-.82784-.00606-1.65566-.01221-.7526.02124-1.50523.04267H22.70307V35.604l.64643.21532.00828.72507Z" fill="#e8c8c1"/><path d="M23.28776,38.36024l.07-1.81582.19106-.72292a1.363,1.363,0,0,1,.18264.00488c.01742.69916.06446,1.39984.02918,2.09634C23.75289,38.07615,23.45309,38.21478,23.28776,38.36024Z" fill="#b04136"/><path d="M28.08861,75.33921l1.44513-.14023.3215.07446-.08275.36169-1.67742.00775Z" fill="#ae322c"/><path d="M24.92772,75.36967q.75262-.02138,1.50523-.04267Q25.68033,75.34842,24.92772,75.36967Z" fill="#c06b5b"/><path d="M23.88267,34.20325l-.16637.66628q-.08552-.35391-.17093-.7077Q23.71414,34.18267,23.88267,34.20325Z" fill="#b04136"/><path d="M23.54884,35.8215l-.19106.72292-.00828-.72507Q23.44922,35.81611,23.54884,35.8215Z" fill="#b74e43"/><path d="M41.54252,34.3768q-.52982-.05387-1.0597-.10755Q41.01259,34.32318,41.54252,34.3768Z" fill="#c06b5b"/><path d="M51.62043,77.04145l.4731.0195Z" fill="#e0b3a9"/><path d="M49.711,77.04016q.14776.01022.29567.0203Q49.859,77.0502,49.711,77.04016Z" fill="#b74e43"/><path d="M50.86845,56.34246h2.537l.02316.37535-2.56177.15654Z" fill="#c06b5b"/><path d="M53.427,70.18183h-2.5613l-.00056-.354h2.56852Z" fill="#b85a4b"/><path d="M50.89339,49.40809l2.50616-.124.03386.46243-2.54288.17311Z" fill="#bb5e4f"/><path d="M50.8629,59.00278h2.55471l.01636.40279-2.56786.15885Z" fill="#bb5e4f"/><path d="M50.89414,65.67526h2.53907l.013.416-2.58218.11617Z" fill="#bc6354"/><path d="M53.43607,55.26325H50.8755l-.00915-.347,2.53678-.115Z" fill="#bc6354"/><path d="M53.44825,62.04554h-2.6005l-.00448-.31991,2.58161-.14461Z" fill="#b55143"/><path d="M53.43349,39.03461h-2.5858l-.0024-.34341,2.58426-.11475Z" fill="#bb5e4f"/><path d="M53.43053,45.6449H50.87725l-.00388-.34512h2.5384Z" fill="#bb5e4f"/><path d="M50.89886,67.11h2.514l.023.37208-2.56043.15652Z" fill="#bc6354"/><ellipse cx="52.15959" cy="57.76121" rx="1.79237" ry="0.24366" fill="#b65446"/><path d="M53.45377,68.7543l-2.56725.1362-.02429-.44355,2.54857-.15776Z" fill="#b55143"/><path d="M49.99942,60.09944l-1.98393.39253-.12169-.44955,1.97552-.4535Z" fill="#c06b5b"/><path d="M53.44609,60.61489l-2.54366.1264-.01868-.43749,2.51407-.15341Z" fill="#b65749"/><path d="M50.87706,50.64476h2.47452l.01579.371-2.48324.14925Z" fill="#b55143"/><path d="M50.90277,52.06931h2.51039l.01469.36659-2.51977.16253Z" fill="#b65446"/><path d="M50.91305,53.65432h2.48934l.0277.35426-2.522.15092Z" fill="#bb5e4f"/><path d="M49.95374,67.32556l-1.97823.33877-.08306-.413L49.86326,66.84Z" fill="#bc6354"/><path d="M49.9477,70.17865l-1.908.312-.08788-.38769,1.91283-.41656Z" fill="#b55143"/><path d="M47.95731,41.47931l1.91971-.33348.08321.442-1.90041.3478Z" fill="#b85a4b"/><path d="M53.41293,63.26278H50.89866l-.00337-.30139h2.51446Z" fill="#b65446"/><path d="M49.94281,40.1345l-1.91581.37958-.08244-.39035,1.9146-.39169Z" fill="#b55143"/><path d="M53.43009,41.69408H50.89782l-.00692-.30327,2.50285-.138Z" fill="#b85a4b"/><path d="M49.93041,71.566l-1.89366.37229-.09622-.38934,1.90143-.43309Z" fill="#b65446"/><path d="M62.73756,65.56843l1.97622-.0914.01815.4757-2.01166.11561Z" fill="#bb5e4f"/><path d="M62.72163,49.292H64.745l.00634.36754L62.729,49.765Z" fill="#bb5e4f"/><path d="M62.756,43.91l1.89323-.116.03326.44061-1.93595.14606Z" fill="#b85a4b"/><path d="M62.70271,45.1654l2.00879-.12206.00916.45672H62.70754Z" fill="#b55143"/><path d="M62.706,41.2385h2.00415l.0029.32741H62.70873Z" fill="#bb5e4f"/><path d="M64.721,67.3926l-1.96956.11078-.03746-.4687,1.97662-.13453Z" fill="#bc6354"/><path d="M50.91174,39.95751h2.47458l.01391.32413-2.47238.11207Z" fill="#b65446"/><path d="M62.7323,39.806h1.98714l.00678.33567-1.98847.13792Z" fill="#bc6354"/><path d="M64.71911,55.13864h-1.995l-.008-.32318,1.99418-.10484Z" fill="#b85a4b"/><path d="M64.7004,46.9337H62.71073l-.00014-.32247,1.98364-.09142Z" fill="#b55143"/><path d="M62.709,47.86055l1.98878-.14553.0212.44131H62.72369Z" fill="#bc6354"/><path d="M49.93321,61.48088l-1.89547.37315-.0926-.36954,1.89813-.43788Z" fill="#b65446"/><path d="M64.72732,63.16285l-1.95487.131-.03794-.38814h1.97376Z" fill="#bb5e4f"/><path d="M49.94017,44.41022l-1.8958.40584-.10545-.43744,1.90371-.39652Z" fill="#b85a4b"/><path d="M52.59276,47.91445h.81312l-.0243.56122L50.88931,48.067l.54844-.06133.60422.00787Z" fill="#b34e40"/><path d="M47.96769,62.85724l1.9076-.35875.07917.421-1.91111.33826Z" fill="#b65749"/><path d="M62.69209,42.5018l1.99744-.14047.0223.45381-1.996.15032Z" fill="#b65749"/><path d="M49.933,43.02479l-1.87678.31635-.08382-.39651,1.88157-.40087Z" fill="#b65446"/><path d="M49.95327,68.7194l-1.868.31866-.07954-.38218,1.86864-.34606Z" fill="#b34e40"/><path d="M52.58528,64.76338H50.89775l.00976-.34666,2.47036-.12249.05191.21333q-.24822.09274-.49664.1854Q52.759,64.72811,52.58528,64.76338Z" fill="#b04136"/><path d="M64.7251,70.0769l-1.99581.08989-.00913-.41473h1.998Z" fill="#b65446"/><path d="M49.93756,38.89213l-1.89416.36627-.09645-.39465,1.89292-.44736Z" fill="#b65446"/><path d="M64.63188,53.88942H62.70337l-.00062-.34289,1.998-.10723Z" fill="#b65749"/><path d="M49.85265,45.88581l-1.81709.32884L47.959,45.8064l1.90261-.36607Z" fill="#bb5e4f"/><path d="M47.931,65.811l1.9374-.3713.08626.42409-1.93782.36648Z" fill="#b65749"/><path d="M49.93649,47.29177l-1.86049.3339-.09293-.38217,1.8567-.43032Z" fill="#b65446"/><path d="M49.95646,58.72431l-1.875.31335-.10183-.38042,1.86487-.43005Z" fill="#b65446"/><path d="M61.48357,49.78639l-1.545-.2509.06254-.45113,1.55077.22372Z" fill="#bc6354"/><path d="M56.177,41.705l-1.49729.15884-.07464-.417,1.49786-.27034Z" fill="#c06b5b"/><path d="M62.71305,57.47011l1.9874-.0919.01936.45483-1.97673.13333Z" fill="#b55143"/><path d="M56.135,63.26276l-1.455.16812-.06668-.382L56.1087,62.79Z" fill="#bc6354"/><path d="M47.97352,64.24629l1.89806-.32445.0749.39929-1.89036.37631Z" fill="#b34e40"/><path d="M62.72912,70.95061l1.96475-.10948.03109.43239-1.98336.1374Z" fill="#b65446"/><path d="M62.73772,38.56224H64.698l.02007.32839-1.96992.12994Z" fill="#b65446"/><path d="M60.01247,47.66159l1.51974.206-.03392.40344-1.51471-.113Z" fill="#bc6354"/><path d="M62.73358,51.96855h1.9681l.00569.29835h-1.971Z" fill="#b55143"/><path d="M56.13422,57.94226l-1.49623.14763-.04781-.41574,1.5199-.20093Z" fill="#b85a4b"/><path d="M64.6901,59.26105H62.73919l-.02405-.32408,1.96738-.12119Z" fill="#b65749"/><path d="M62.72412,60.174h1.98221l.0084.26207h-1.9821Z" fill="#b55143"/><path d="M64.71558,64.59154H62.7279l-.00223-.3H64.703Z" fill="#b65446"/><path d="M60.03659,68.04747l1.53022.27695-.07289.43433L59.94076,68.539Z" fill="#bc6354"/><path d="M64.69417,68.61488H62.71792l.00723-.26849h1.978Z" fill="#b34e40"/><path d="M47.9286,54.34723l1.92323-.38543.09014.42372c-.29641.05854-.59335.1145-.88908.17629-.33164.06929-.66218.14386-.99321.21613Z" fill="#b34e40"/><path d="M60.02124,65.42185l1.5217.18862-.03123.392-1.50854-.13109Z" fill="#b65749"/><path d="M60.042,69.521l1.49576.23882-.05462.39625-1.52721-.1949Z" fill="#b65749"/><path d="M61.35824,62.06255l-1.44057-.22882.08-.4607,1.529.24278Z" fill="#b65749"/><path d="M54.608,38.71366l1.49173-.21711.07085.43292-1.47031.23744Z" fill="#b55143"/><path d="M54.62372,39.9714l1.47206-.16971.05361.40118-1.467.2077Z" fill="#b65446"/><path d="M47.94788,52.902l1.91818-.343.07871.40611-1.87728.37744Z" fill="#b74e43"/><path d="M49.93262,48.6911l-1.8482.36636-.10272-.37771,1.8603-.46049Z" fill="#b34e40"/><path d="M61.46512,45.67005l-1.49694-.2539.07266-.44845,1.49893.24188Z" fill="#b65446"/><path d="M56.14241,64.64272l-1.36133.19735-.07626-.32106,1.378-.32253Z" fill="#b34e40"/><path d="M49.92207,57.28064l-1.89984.31789-.08541-.36391,1.88893-.43481Z" fill="#b65749"/><path d="M47.94186,55.74027l1.90537-.3292.08037.37758-1.909.41733Z" fill="#b65446"/><path d="M61.46682,52.43385l-1.50358-.20038.05806-.44073,1.50265.20582Z" fill="#b85a4b"/><path d="M54.58078,69.861l1.53385-.18677.0563.42668-1.51947.22119Z" fill="#bb5e4f"/><path d="M52.82028,46.66722l.46259.018a.30749.30749,0,0,0,.06359.22482l-.00034.0051q-.14771.08232-.29526.16478l-2.13075.12529-.05646-.32329.48624-.18068.73361.15638Z" fill="#ae322c"/><path d="M60.03816,57.31263l1.45951.17976-.0384.40142-1.48994-.128Z" fill="#b85a4b"/><path d="M56.16791,59.32309l-1.5114.195-.0476-.41158,1.51082-.18564Z" fill="#b65749"/><path d="M47.9539,51.47805l1.90434-.3253.07447.38918-1.88981.36642Z" fill="#b34e40"/><path d="M47.93326,50.1017l1.89686-.43248.09976.41823-1.90294.39951Z" fill="#b34e40"/><path d="M61.43968,60.603l-1.509-.18657.04818-.44133,1.50894.16454Z" fill="#b65749"/><path d="M54.61721,61.70105l1.52146-.1238.0308.39726-1.5132.18029Z" fill="#b55143"/><path d="M64.56292,61.54368l.102.34047-1.93979.14793-.02556-.44393,1.15647-.07831Z" fill="#b65446"/><path d="M61.34,59.41849l-1.37426-.24527.087-.4393,1.46329.25249Z" fill="#bc6354"/><path d="M61.44835,54.047l-1.47948-.23677.05027-.43264,1.50052.18093Z" fill="#b65446"/><path d="M56.16242,68.67858l-1.494.17018-.04457-.38331,1.49079-.19121Z" fill="#b55143"/><path d="M56.10127,71.35208l-1.42266.18044-.05685-.37364,1.4502-.22569Z" fill="#b34e40"/><path d="M56.13861,44.354l-1.43107.15825-.07374-.38707,1.44826-.22357Z" fill="#bb5e4f"/><path d="M54.60592,52.17286l1.45669-.2763.08715.42358-1.464.244Z" fill="#b55143"/><path d="M61.44365,55.27875l-1.44773-.2217.04555-.3931,1.453.1884Z" fill="#b55143"/><path d="M60.05014,50.34742l1.47055.22757-.07542.40162-1.46633-.22872Z" fill="#b65749"/><path d="M61.42179,41.73663l-1.47457-.22424.06511-.44164,1.49685.17773Z" fill="#b65749"/><path d="M57.38945,69.68931l1.1932-.1436.05945.38177-1.18415.21557Z" fill="#b65749"/><path d="M52.81114,44.42475H50.90528l-.0109-.4006H52.582Z" fill="#b65446"/><path d="M56.15678,60.50846,54.714,60.737l-.05968-.37925,1.44206-.23036Z" fill="#b65446"/><path d="M62.91211,50.92361l-.04583-.41271h1.82913l.03539.30991-1.12626.112Z" fill="#bc6354"/><path d="M56.11354,50.95848l-1.40689.18053-.0635-.36952,1.43048-.25225Z" fill="#b65749"/><path d="M56.0813,49.7517l-1.41866.10413-.03481-.38371,1.48878-.17576Z" fill="#b65446"/><path d="M58.63231,48.13978,57.4779,48.3l-.07295-.36637,1.13619-.253Z" fill="#b65446"/><path d="M54.61772,45.31833l1.49031-.1564.05342.42539-1.4514.1838Z" fill="#b65446"/><path d="M57.3797,61.60341l1.21337-.1898.06562.39576-1.21362.18526Z" fill="#b65749"/><path d="M60.00183,70.77485l1.53659.24705-.05582.37395-1.50955-.14039Z" fill="#b34e40"/><path d="M61.44642,47.07421l-1.45263-.22682.04855-.40088,1.45563.19261Z" fill="#b55143"/><path d="M58.60283,45.45406l-1.13944.17881-.074-.42419,1.16944-.214Z" fill="#b85a4b"/><path d="M58.63749,56.4941l-1.16646.15517-.05056-.37967,1.16537-.16117Z" fill="#b85a4b"/><path d="M56.1446,42.93347l-1.43929.12286-.03575-.43118,1.44-.1139Z" fill="#b65446"/><path d="M58.66426,60.43206l-1.219.13449-.05083-.39921,1.21567-.16324Z" fill="#b65749"/><path d="M54.6039,54.99193l1.48269-.22505.07415.42911-1.482.20512Z" fill="#b65446"/><path d="M57.38615,65.588l1.15115-.19468.0813.36555-1.13823.27091Z" fill="#b65749"/><path d="M56.16609,65.99141l-1.4748.19785-.06331-.38872,1.47488-.22172Z" fill="#b55143"/><path d="M60.03267,39.6461l1.4691.17369-.0571.4345-1.46285-.21855Z" fill="#b65446"/><path d="M60.0424,43.73829l1.45232.20975-.04865.41274-1.451-.15269Z" fill="#b85a4b"/><path d="M61.44311,67.47379l-1.4223-.21572.02649-.36635,1.43477.14187Z" fill="#b34e40"/><path d="M57.40609,58.91889l1.15341-.13132.062.37113-1.14637.21563Z" fill="#bb5e4f"/><path d="M57.45819,51.89966l1.12544-.08445.033.4026-1.18433.1263Z" fill="#bb5e4f"/><path d="M56.14431,48.25491l-1.40609.17824-.05411-.37907,1.40361-.20163Z" fill="#bb5e4f"/><path d="M56.14566,67.44732l-1.43748.149-.06448-.37407,1.44757-.23344Z" fill="#b65749"/><path d="M58.61874,55.0607l-1.15426.16492-.05159-.3688,1.15416-.16467Z" fill="#b55143"/><path d="M54.63314,46.77481l1.4642-.20077.06748.40124-1.455.25735Z" fill="#b65749"/><path d="M58.63393,57.76594l-1.18423.14835-.05212-.39539,1.18357-.15537Z" fill="#b85a4b"/><path d="M58.62473,46.86384l-1.159.20125-.07836-.37366,1.14075-.26952Z" fill="#bb5e4f"/><path d="M56.13289,54.0018l-1.3954.12149-.06-.38221,1.40773-.22824Z" fill="#b65749"/><path d="M57.39414,53.53691l1.18366-.123.05026.38487-1.15714.19706Z" fill="#b65446"/><path d="M58.64541,49.53721l-1.18281.19608-.06873-.4077,1.18218-.19913Z" fill="#b55143"/><path d="M58.10082,67.33016l-.63718.07693.09751-.44168.99421.2928Z" fill="#b34e40"/><path d="M52.19887,71.44484l1.1019-.54346.1584.3878-.68786.14017Z" fill="#b34e40"/><path d="M57.42115,50.52214l1.145-.11042.05294.38061-1.1408.1756Z" fill="#b85a4b"/><path d="M61.428,39.02812l-1.43107-.24937.05263-.35592,1.421.15023Z" fill="#b34e40"/><path d="M60.06286,62.63421l1.42612.25047-.06241.38111-1.42-.20137Z" fill="#b55143"/><path d="M62.90441,56.25185l1.67155-.01808.03337.26877-.00188.00249q-.13668.03719-.27321.07461l-.71395.06766-.58344.03072a.1585.1585,0,0,1-.14736-.04329Z" fill="#b04136"/><path d="M60.64249,56.53452l-.66712-.14873.06436-.30936,1.43881.18148.00484.28491-.50757.07208Z" fill="#b34e40"/><path d="M57.40824,42.53833l1.12907-.20914.06939.38765-1.13333.188Z" fill="#b55143"/><path d="M61.42278,64.71151l-1.45156-.24637.058-.36975,1.43966.18215Z" fill="#b55143"/><path d="M52.09224,42.62872l1.29894-.12294.0465.3586-1.10547.15788Z" fill="#b55143"/><path d="M57.39985,41.285l1.14407-.2208.07452.37486-1.14636.20948Z" fill="#b34e40"/><path d="M58.60086,38.821l-1.12538.15635-.05818-.36281,1.12256-.16756Z" fill="#b55143"/><path d="M57.4371,39.77682l1.13829-.1336.05878.374-1.17048.19427Z" fill="#b55143"/><path d="M57.41793,62.82382l1.12539-.17138.0729.35644-1.11972.22529Z" fill="#b65446"/><path d="M57.392,71.00352l1.16779-.19925.06591.37981-1.16966.18541Z" fill="#b34e40"/><path d="M57.40987,64.27981l1.15562-.18349.06765.373-1.15338.21144Z" fill="#b34e40"/><path d="M58.57827,44.21142l-1.091.07473-.04227-.31272,1.09622-.17887Z" fill="#b74e43"/><path d="M50.92882,71.04982l1.0786.12719-.01578.25612H50.91448Z" fill="#b85a4b"/><path d="M61.06348,42.44539l.41771.23692-.06555.23-1.35052-.15723-.04891-.20965.47134-.19781Z" fill="#b04136"/><path d="M55.21546,56.26224l.923.045.00362.35134-.92387.05976Z" fill="#bb5e4f"/><path d="M52.09224,42.62872l.24.39354-1.18643-.0101.23666-.39205Z" fill="#a52926"/><path d="M55.21546,56.26224l.00279.45609-.57038.09048-.07694-.22754Z" fill="#b85a4b"/><path d="M52.81114,44.42475l-.22913-.4006h.82113l.03914.22629Z" fill="#b74e43"/><path d="M58.56446,68.46488l-1.14981.10779.20984-.32693Z" fill="#c06b5b"/><path d="M58.56446,68.46488l-.94-.21915Z" fill="#a52926"/><path d="M51.38244,42.62011l-.23666.39205-.47407-.44149Z" fill="#b55143"/><path d="M64.56292,61.54368l-.70686-.03383Z" fill="#a52926"/><path d="M62.91211,50.92361l.69243.00922Z" fill="#ae322c"/><path d="M52.82028,46.66722q-.3684.09521-.73672.19049a.61943.61943,0,0,0,.03541-.15982Z" fill="#b85a4b"/><path d="M52.119,46.69789a.61943.61943,0,0,1-.03541.15982q-.36688-.07831-.73367-.15646Z" fill="#ca7e71"/><path d="M52.59276,47.91445l-.55079.099Z" fill="#ca7e71"/><path d="M58.10082,67.33016l.45454-.072Z" fill="#ca7e71"/><path d="M51.43775,48.00563l-.54844.06133Z" fill="#ca7e71"/><path d="M63.03685,56.678l.58344-.03072Z" fill="#c06b5b"/><path d="M52.19887,71.44484l.57244-.01549Z" fill="#b85a4b"/><path d="M62.90441,56.25185l-.01492.38288Z" fill="#c06b5b"/><path d="M61.06348,42.44539l-.57593-.09779Z" fill="#c67466"/><path d="M60.64249,56.53452l.33332.08038Z" fill="#c06b5b"/><path d="M64.60933,56.50255l-.03337-.26878.18339.112Z" fill="#c06b5b"/><path d="M53.05086,47.07993q.1476-.08242.29526-.16478Q53.19858,46.99759,53.05086,47.07993Z" fill="#b85a4b"/><path d="M53.34646,46.91005a.30744.30744,0,0,1-.06358-.22482Z" fill="#b85a4b"/><path d="M64.33424,56.57964q.13658-.03736.27321-.07461Q64.47092,56.54244,64.33424,56.57964Z" fill="#c06b5b"/><path d="M52.58528,64.76338q.17382-.03523.34786-.07042Q52.75942,64.72825,52.58528,64.76338Z" fill="#b65749"/><path d="M56.89983,76.68285l1.90181.05422Z" fill="#e0b3a9"/><path d="M50.56972,76.4621l.79913.05048Q50.96927,76.4873,50.56972,76.4621Z" fill="#bc6354"/><path d="M49.70584,76.49412l.45659.01605Z" fill="#e0b3a9"/><path d="M67.72035,75.20841l.23326.5-7.21034-.06171.00865-.37641,3.31105.01922q1.81566-.0503,3.63127-.10055Z" fill="#a52926"/><path d="M56.16833,75.58517l.00016-.355L58.82468,75.16l.83943.52272c-.58762.17267-1.17517.34536-1.76889.51842-.22387-.01438-.44156-.02913-.65933-.04391l-.01652-.02291Z" fill="#b34e40"/><path d="M61.2785,76.34667l-2.7139-.10262Z" fill="#c06b5b"/><path d="M60.75192,75.27028l-.00865.37641-.61486.03574Z" fill="#b34e40"/><path d="M67.69424,75.189q-1.81561.05026-3.63127.10055Z" fill="#ca7e71"/><path d="M56.16833,75.58517q.52553.27457,1.04912.54791c-.27022.01933-.53852.03989-.80681.06046-.37336-.33987-1.24821.554-1.3168-.5353Q55.63123,75.62173,56.16833,75.58517Z" fill="#f6eae7"/><path d="M39.96267,76.46721l-2.02822.1Z" fill="#bc6354"/><path d="M30.36573,76.7107l-1.791.092Z" fill="#bc6354"/><path d="M30.41212,76.33437l1.27836-.06618Q31.05129,76.30131,30.41212,76.33437Z" fill="#bc6354"/><path d="M56.41064,76.19354c.26829-.02057.53659-.04113.80681-.06046l.01844.02415Z" fill="#c06b5b"/><path d="M27.09079,76.80434l-.65828.00974-.01176-.38727.71251-.01166Z" fill="#ae322c"/><path d="M29.57132,74.77261c-1.74466-.01857-3.4908-.00433-5.23276-.08273-.35866-.01614-.70175-.378-1.05194-.58087q7.96929.07674,15.93841.15519c.55869.0056,1.11724.02532,1.67575.03864l-.0886.3621c-2.57144.01495-5.14312.01589-7.714.06052a4.08776,4.08776,0,0,0-1.1013.34362l-.06495.00043Z" fill="#b04136"/><path d="M40.164,49.92352l-2.64116-.13425.01577-.40275H40.1658Z" fill="#bc6354"/><path d="M40.18476,66.05175H37.531l-.01825-.32161h2.62293Z" fill="#bc6354"/><path d="M40.15872,47.06237H37.54614L37.54,46.72631h2.57745Z" fill="#bb5e4f"/><path d="M37.5342,45.27718h2.62337l.00157.33887H37.535Z" fill="#bc6354"/><path d="M40.1266,55.25922H37.53914l-.00272-.333H40.124Z" fill="#b85a4b"/><path d="M37.54167,68.28518l2.625.12759-.0017.31662H37.51178Z" fill="#b85a4b"/><path d="M40.13005,59.55318l-2.6107-.12393.00338-.39606h2.60142Z" fill="#bb5e4f"/><path d="M37.51517,61.66175h2.6261l.0004.348H37.5155Z" fill="#bb5e4f"/><path d="M40.13445,57.96675H37.51183l-.00683-.35129h2.59767Z" fill="#b85a4b"/><ellipse cx="38.84063" cy="38.85013" rx="1.86965" ry="0.23579" fill="#bb5e4f"/><path d="M37.32759,69.80483h2.68624C39.78867,70.53894,38.74326,70.59529,37.32759,69.80483Z" fill="#b55143"/><path d="M37.563,56.35665H40.0994l-.001.31988H37.562Z" fill="#b85a4b"/><path d="M37.57337,50.63193h2.52335l.00857.32723H37.5418Z" fill="#b65446"/><path d="M37.54972,53.67786c.10114-.04156.20389-.12246.30318-.11841a5.98066,5.98066,0,0,1,2.29334.42039H37.557Z" fill="#b85a4b"/><path d="M40.108,60.734l-2.59188-.115.01088-.36749h2.59619Z" fill="#bb5e4f"/><path d="M37.57353,51.98357l2.54832.147-.0224.43436q-1.27429-.072-2.54859-.144Z" fill="#b65446"/><path d="M28.25627,53.95055H26.27544L26.251,53.608h2.0104Z" fill="#c06b5b"/><path d="M37.56681,47.87622l2.55219.11444-.00124.29649H37.55038Z" fill="#b65749"/><path d="M40.11749,64.8561l-2.59707-.12692.00695-.37832h2.572Z" fill="#b85a4b"/><path d="M41.10507,59.65526l2.02769.32648-.08387.48356-2.02162-.35259Z" fill="#c06b5b"/><path d="M37.5546,70.99026l2.56276.12741-.00191.29925H37.51426Z" fill="#b85a4b"/><path d="M41.1111,66.86869l2.00581.30545-.06456.45953L41.048,67.302Z" fill="#bb5e4f"/><path d="M37.55029,62.94442h2.5764l.00274.32369H37.53931Z" fill="#b65749"/><path d="M41.11927,65.4544l1.98614.33049-.07921.44748-1.98074-.35914Z" fill="#b65749"/><path d="M41.13646,69.69433l1.9299.34641-.06784.42768-1.96159-.28519Z" fill="#b65446"/><path d="M26.239,45.175h2.02653l.0102.30584H26.24606Z" fill="#b65749"/><path d="M41.13239,41.145l1.93563.36908-.08315.4155-1.943-.33194Z" fill="#b85a4b"/><path d="M26.29,42.35106l2.00859.15119-.01826.43611-2.01663-.09823Z" fill="#bb5e4f"/><path d="M40.11328,42.914H37.55765l.0021-.30219h2.56281Z" fill="#b34e40"/><path d="M26.257,66.90562l2.02541.109-.00121.34156h-2.001Z" fill="#bc6354"/><path d="M28.226,41.73251l-1.96993-.1279.00416-.33634h2.0177Z" fill="#bb5e4f"/><path d="M41.15705,58.21825l1.93345.42206-.09766.41092-1.94039-.39133Z" fill="#b65446"/><path d="M28.253,49.76678l-2.02-.11213.00574-.36439h2.01814Z" fill="#bb5e4f"/><path d="M28.28136,65.93627H26.25505l-.00684-.31485h2.02931Z" fill="#bc6354"/><path d="M41.13305,71.14148l1.94771.35225-.07732.41773-1.94906-.339Z" fill="#b65749"/><ellipse cx="27.24458" cy="46.77374" rx="1.40835" ry="0.21578" fill="#b85a4b"/><path d="M42.98875,64.70806l-1.94837-.35154.06439-.4183,1.97408.27676Z" fill="#bb5e4f"/><path d="M42.88887,61.82265l-1.79169-.32478.07025-.39454,1.88425.315Z" fill="#b65749"/><path d="M41.13927,68.3023l1.91578.35909-.07788.38928-1.91827-.334Z" fill="#b34e40"/><path d="M28.26308,48.18648H26.2756l-.01053-.30068H28.257Z" fill="#bc6354"/><path d="M26.25373,39.8076h1.9875l.0092.30836H26.25875Z" fill="#bc6354"/><path d="M41.165,39.72024l1.90381.36308-.07123.39274-1.92032-.30479Z" fill="#b55143"/><path d="M42.86047,43.35623l-1.80935-.37737.0947-.42544,1.90152.38868Z" fill="#b55143"/><path d="M42.989,44.79161l-1.89084-.34806.05443-.39083,1.92035.26014Z" fill="#b85a4b"/><path d="M42.91856,63.26365l-1.87271-.3276.0705-.42042,1.91331.30794Z" fill="#bb5e4f"/><path d="M26.27892,62.79016h1.94234l.00029.31816H26.25577Z" fill="#bb5e4f"/><path d="M26.28172,54.69664l1.98769.12211-.00645.33081H26.2764Z" fill="#bb5e4f"/><path d="M41.15559,38.43417l1.91876.38328-.07818.41224L41.06584,38.909Z" fill="#b65749"/><path d="M41.148,56.84922l1.94047.336-.074.40795-1.94481-.31228Z" fill="#b65749"/><path d="M38.9799,67.17368q.39106-.03105.7822-.062.18467.0636.36923.127l.00266.00721-.05294.23488H37.55562l-.02875-.33623.87894-.06036Z" fill="#b04136"/><path d="M31.04425,49.54861l-1.51856.25263-.09959-.42752,1.50946-.34107Z" fill="#bc6354"/><path d="M31.04192,69.93869l-1.53581.27041-.08446-.45171,1.53629-.26769Z" fill="#bc6354"/><path d="M34.86885,62.80676l1.492.15047-.03.41437-1.47724-.11772Z" fill="#b65446"/><path d="M31.05,48.08025l-1.53891.28134-.09291-.45366L30.955,47.6095Z" fill="#c06b5b"/><path d="M29.40579,57.52706l1.56-.25611.08438.42517-1.52655.32107Z" fill="#bc6354"/><path d="M34.86529,39.81885l1.50426.16347-.04895.43569-1.50284-.17828Z" fill="#c06b5b"/><path d="M28.21984,39.02057l-1.95962-.09665.01093-.3492H28.263Z" fill="#b65446"/><path d="M28.26739,70.04332H26.32431l-.03048-.23389h1.95829Z" fill="#b65446"/><path d="M34.8561,41.244l1.505.1562-.04831.4605-1.50595-.15527Z" fill="#c06b5b"/><path d="M26.28827,43.81488l1.92844.10371.01162.30683h-1.9305Z" fill="#b85a4b"/><path d="M41.1426,55.42989l1.93809.27829-.06076.44051-1.93477-.31757Z" fill="#b65749"/><path d="M28.247,71.29468H26.26851l-.00558-.29309h1.96358Z" fill="#b55143"/><path d="M26.26307,68.29044h1.992l.00156.289H26.2648Z" fill="#b34e40"/><path d="M42.97467,46.1897l-1.895-.34743.08474-.40831,1.88915.37391Z" fill="#b65749"/><path d="M41.14442,46.8634l1.888.31123-.0587.40657L41.089,47.32933Z" fill="#b65446"/><path d="M26.27456,51.86556l1.98212.10051-.00372.31715H26.27677Z" fill="#b74e43"/><path d="M43.0172,53.31318l-1.93973-.29871.07537-.42491,1.93406.3194Z" fill="#b74e43"/><path d="M43.01571,54.76131,41.084,54.40913l.08458-.41891,1.9283.3577Z" fill="#b34e40"/><path d="M31.01574,55.07935,29.507,55.318l-.08537-.43982,1.52111-.29191Z" fill="#c06b5b"/><path d="M28.24091,50.8863H26.28329l-.00374-.30616H28.235Z" fill="#bb5e4f"/><path d="M28.24429,57.95359l-1.97587-.10348-.001-.3311h1.98343Z" fill="#b55143"/><path d="M30.94937,59.22809l-1.45028.17927-.06373-.4402,1.5277-.22279Z" fill="#bc6354"/><ellipse cx="27.26229" cy="59.10004" rx="1.38768" ry="0.19407" fill="#b65749"/><path d="M28.25005,60.47093h-1.986l-.0033-.29136h1.98Z" fill="#b55143"/><path d="M29.43278,61.58388l1.54319-.20631.06469.43115-1.54508.24845Z" fill="#b85a4b"/><path d="M28.25446,61.9327H26.27l-.0001-.30054h1.98115Z" fill="#b34e40"/><path d="M28.238,64.59384H26.24706l.00156-.29965h1.99659Z" fill="#b65446"/><path d="M29.43256,65.623l1.54-.217.063.42606-1.51261.26334Z" fill="#b65749"/><path d="M31.02306,68.56264l-1.5248.20318-.07965-.43369,1.53574-.2858Z" fill="#bc6354"/><path d="M34.87526,50.53309l1.49385.16166-.03169.4063-1.46108-.10819Z" fill="#b65749"/><path d="M34.85193,38.56969l1.4693.06712-.00387.43849-1.4716-.08139Z" fill="#b55143"/><path d="M41.15768,48.2686l1.90272.373-.07505.39956-1.89073-.31838Z" fill="#b34e40"/><path d="M36.29634,44.52144,34.82458,44.344l.03739-.40023,1.50416.10685Z" fill="#bb5e4f"/><path d="M36.26384,64.83639l-1.42615-.19769.032-.36308,1.47842.129Z" fill="#b34e40"/><path d="M42.98693,51.90728l-1.89036-.34082.05324-.37543,1.93142.26612Z" fill="#b65446"/><path d="M31.022,45.41539,29.50775,45.67l-.07905-.43618,1.50288-.28347Z" fill="#b65446"/><path d="M29.44342,67.04319l1.51826-.2004.058.39627-1.51107.278Z" fill="#b65749"/><path d="M34.85185,57.61277H36.322l.0047.32978h-1.471Z" fill="#b55143"/><path d="M36.26681,43.08689l-1.43172-.185.05812-.3935,1.43485.1786Z" fill="#b65446"/><path d="M34.86919,58.92717l1.49534.18135-.05.41279-1.4928-.20319Z" fill="#b65446"/><path d="M31.02138,52.2039l-1.47177.23024-.07117-.42711,1.47136-.23236Z" fill="#b85a4b"/><path d="M30.97264,50.84768l-1.43549.17443-.06776-.42887,1.496-.25281Z" fill="#bc6354"/><path d="M31.03726,60.41918l-1.50159.18789-.076-.40053,1.48254-.29833Z" fill="#b85a4b"/><path d="M34.87927,69.66619l1.51218.2207-.051.40169-1.51061-.1547Z" fill="#b65749"/><path d="M42.991,50.47124l-1.88538-.31247.06174-.40534,1.88909.28657Z" fill="#b65446"/><path d="M34.88375,61.53413l1.4851.21458-.04926.39411-1.48246-.15165Z" fill="#b34e40"/><path d="M31.01526,53.80261l-1.49415.24455-.07858-.431,1.494-.295Z" fill="#b55143"/><path d="M29.4434,41.2563l1.51227-.18944.0646.38807-1.49408.2941Z" fill="#b65446"/><path d="M34.90191,70.94612l1.46287.20124-.04855.378-1.41482-.1615Z" fill="#b34e40"/><path d="M34.89377,60.09368l1.4696.20508-.04412.39946-1.47282-.157Z" fill="#b65749"/><path d="M33.52189,45.63138l-1.18258-.18628.03417-.39625,1.2203.10433Z" fill="#b85a4b"/><path d="M34.87686,68.23957l1.4937.211-.04526.39161-1.4749-.14424Z" fill="#b65446"/><path d="M36.33377,67.5915l-1.49118-.12533.02837-.40135,1.49258.11488Z" fill="#b65749"/><path d="M32.38815,61.4118l1.21981.19446-.05064.38449-1.22575-.11054Z" fill="#b65749"/><path d="M36.24366,49.89739l-1.41113-.2194.03784-.37636,1.44811.13729Z" fill="#b34e40"/><path d="M30.903,46.88492l-1.38534.1546-.03959-.40206,1.47406-.19172Z" fill="#b55143"/><path d="M33.51307,56.67714l-1.14447-.16038.02483-.35411,1.17874.05159Z" fill="#b85a4b"/><path d="M38.25492,44.06791h1.83567l.015.26H38.26918Z" fill="#b65446"/><path d="M29.47293,43.95778l1.47473-.24392.08071.36632-1.46155.34735Z" fill="#bb5e4f"/><path d="M31.009,38.846l-1.46862.17525-.06168-.4141,1.455-.22707Z" fill="#b65446"/><path d="M30.99817,42.74374l-1.46182.22916-.07689-.40973,1.463-.28448Z" fill="#b85a4b"/><path d="M29.4743,39.85317l1.46914-.23829.0743.39536-1.46037.28244Z" fill="#b65749"/><path d="M36.25522,55.42039l-1.42638-.22607.0369-.376,1.46576.12939Z" fill="#b65446"/><path d="M33.54275,66.00036,32.3334,65.85l.04521-.38438,1.20912.14721Z" fill="#b65749"/><path d="M38.41512,39.92119h1.69145l.01271.39776q-.87015,0-1.74028-.00009Z" fill="#b65446"/><path d="M32.41765,57.32656l1.18658.20693-.0555.381-1.19947-.13041Z" fill="#bb5e4f"/><path d="M34.89265,47.8254l1.42967.17078-.04.40435L34.834,48.28306Z" fill="#b65749"/><path d="M36.25131,45.76732l-1.42092-.17315.03182-.395,1.45454.10217Z" fill="#b65446"/><path d="M32.418,58.79274l1.16262.12561-.03137.38437-1.16542-.07881Z" fill="#b85a4b"/><path d="M33.53233,52.38411l-1.17539-.1288.04519-.39206,1.17438.13965Z" fill="#b55143"/><path d="M36.26333,54.13223,34.84815,53.981l.03289-.40209,1.42032.09837Z" fill="#b55143"/><path d="M32.36164,60.03225l1.221.07873-.01849.3866-1.22266-.05789Z" fill="#bb5e4f"/><path d="M36.196,52.56728l-1.33254-.20676.041-.35048,1.41787.15329Z" fill="#b55143"/><path d="M34.87762,46.56712l1.49231.21634-.07316.44268-1.48855-.24378Z" fill="#b65749"/><path d="M36.25835,66.18834l-1.4276-.18811.03754-.401,1.48177.12851Z" fill="#b65446"/><path d="M29.45029,71.01109l1.50367-.22371.06578.38061-1.50236.23947Z" fill="#b34e40"/><path d="M33.49585,55.259l-1.14548-.19658.04824-.3519,1.17159.12825Z" fill="#b55143"/><path d="M32.42671,66.84811l1.17084.19261-.04441.37775L32.347,67.28485Z" fill="#b85a4b"/><path d="M33.53965,47.032l-1.17734-.16137.0533-.40306,1.1761.16846Z" fill="#bb5e4f"/><path d="M32.41961,50.396l1.15563.13281-.03054.38017L32.379,50.85146Z" fill="#b85a4b"/><path d="M40.81218,74.66494l.0886-.36209c.78248-.01478,1.56639-.06072,2.34619-.02253.20066.00983.38836.28452.582.43755Z" fill="#b34e40"/><path d="M38.65292,41.37578H40.1133l.01455.412q-.76344,0-1.52679-.00022Z" fill="#b65446"/><path d="M30.426,56.52739l-.87079.13955-.05379-.37621,1.411-.14162-.12175.36318Z" fill="#b04136"/><path d="M32.39081,53.43065l1.18527.12371-.03479.39756-1.18606-.11607Z" fill="#b65446"/><path d="M32.36633,70.81809l1.21678.14476-.02542.26991h-1.1958Z" fill="#b65446"/><path d="M32.40718,49.51992l1.0639-.44567.13345.39141-.45682.23107Z" fill="#b55143"/><path d="M28.07823,56.26354c-.06666.15682-.14417.453-.19831.44876-.50085-.03895-.99767-.12972-1.49566-.20545l.99376-.27707.48812.01745Z" fill="#c06b5b"/><path d="M31.00368,63.05348l-1.44985.22706-.06241-.41214,1.45238-.20611Z" fill="#b65446"/><path d="M32.43973,42.32149l1.14855.18874-.04038.35892-1.17155-.09142Z" fill="#b65749"/><path d="M35.77641,56.714l-.9304-.04574.04109-.44793,1.3518.2578Z" fill="#bb5e4f"/><path d="M29.49371,64.28533l1.46812-.19526.061.38758-1.44115.23373Z" fill="#b55143"/><path d="M32.41929,64.0836l1.16937.20932-.05053.35011-1.15667-.11113Z" fill="#b34e40"/><path d="M32.40542,48.08115l1.07523-.36836.1074.39689-.43826.148Z" fill="#b34e40"/><path d="M33.537,38.937l-1.13929-.08373.02521-.37475,1.13976.08269Z" fill="#b55143"/><path d="M32.4169,39.64161l1.13529.14541-.03028.35861-1.13319-.05147Z" fill="#b55143"/><path d="M32.41983,62.68657,33.577,62.84l-.04828.3647-1.1586-.14323Z" fill="#b65446"/><path d="M32.41275,41.07294l1.15423.17847-.03613.3556L32.387,41.5375Z" fill="#b34e40"/><path d="M33.49618,44.3066,32.383,44.171l.03382-.35491,1.10348.08268Z" fill="#b74e43"/><path d="M33.36308,68.25253l.20788.32484-1.14957-.10852Z" fill="#c06b5b"/><path d="M38.65292,41.37578l-.05186.41182q-.53976-.0765-1.07933-.15345l.03976-.35036Z" fill="#b04136"/><path d="M33.37325,69.67548l.17214.39072q-.35718-.027-.71433-.054Z" fill="#c67466"/><path d="M33.37325,69.67548l-.54219.33676-.42966-.17558.04706-.23317Z" fill="#a52926"/><path d="M38.41512,39.92119l-.03612.39767q-.427-.07252-.854-.14523l.02271-.25244Z" fill="#b04136"/><path d="M27.378,56.22979l-.99376.27706-.00047-.0054q.01657-.13471.03276-.26917Z" fill="#ae322c"/><path d="M33.36308,68.25252l-.94169.21633Z" fill="#a52926"/><path d="M35.77641,56.714l.46249-.23586Z" fill="#b34e40"/><path d="M32.40718,49.51992l.74053.17681Z" fill="#ca7e71"/><path d="M32.40542,48.08115l.74437.17656Z" fill="#ca7e71"/><path d="M37.59886,44.066h.63423l-.00779.267-.63307-.0399Z" fill="#b34e40"/><path d="M38.9799,67.17368l-.57409-.08949Z" fill="#c67466"/><path d="M30.426,56.52739l.36465-.0151Z" fill="#c06b5b"/><path d="M26.41655,56.23228q-.01629.13452-.03276.26917-.07513-.05353-.14991-.10734Z" fill="#c06b5b"/><path d="M40.08105,67.48078l.053-.23488Z" fill="#c67466"/><path d="M40.13132,67.23869q-.18457-.06344-.36922-.127Q39.94664,67.17507,40.13132,67.23869Z" fill="#c67466"/><path d="M28.07823,56.26354l-.21209-.01631A.21.21,0,0,1,28.07823,56.26354Z" fill="#ae322c"/><path d="M29.57132,74.77261q1.18028.14845,2.35907.29717-.42414.30359-.8453.60665l-.69715.00428-.5327-.40727-.3215-.07446Z" fill="#f6eae7"/><path d="M31.08509,75.67642q.4219-.30318.8453-.60664l.06644-.0007q.69753.07587,1.395.15246l.01369.38424Z" fill="#c06b5b"/><path d="M26.42075,76.42681l.01176.38727-1.221.01827-.01025-.38553Z" fill="#b04136"/><path d="M23.3064,76.47944l-.73445.02409Z" fill="#bc6354"/><path d="M24.34693,76.45822l-.57851.00947Z" fill="#bc6354"/><path d="M29.85524,75.27344l.5327.40726-.61544-.04557Z" fill="#b04136"/><path d="M34.31729,75.59307l.27827-.00394Z" fill="#c06b5b"/><path d="M21.50964,75.92533a1.10845,1.10845,0,0,1-.073-.19066c-.00392-.01918.04961-.05012.07678-.07566Z" fill="#bc6354"/><path d="M22.10506,76.53883l-.25242.01573Z" fill="#bc6354"/><path d="M40.85715,75.12814l-.3152.01612Z" fill="#c67466"/><path d="M50.44734,75.14661q-.38555-.01176-.771-.02339Q50.06182,75.13507,50.44734,75.14661Z" fill="#c67466"/><path d="M49.68763,75.49638l.97757.01368Z" fill="#e0b3a9"/></svg>